<?xml version="1.0" encoding="UTF-8" standalone="no"?>
<!-- Created with Inkscape (http://www.inkscape.org/) -->

<svg
   width="486.39758mm"
   height="81.699226mm"
   viewBox="0 0 486.39759 81.699226"
   version="1.1"
   id="svg5"
   inkscape:version="1.1.1 (eb90963e84, 2021-10-02)"
   sodipodi:docname="x-robot-logotipo.svg"
   xmlns:inkscape="http://www.inkscape.org/namespaces/inkscape"
   xmlns:sodipodi="http://sodipodi.sourceforge.net/DTD/sodipodi-0.dtd"
   xmlns="http://www.w3.org/2000/svg"
   xmlns:svg="http://www.w3.org/2000/svg">
  <sodipodi:namedview
     id="namedview7"
     pagecolor="#ffffff"
     bordercolor="#111111"
     borderopacity="1"
     inkscape:pageshadow="0"
     inkscape:pageopacity="0"
     inkscape:pagecheckerboard="false"
     inkscape:document-units="mm"
     showgrid="false"
     showguides="false"
     inkscape:guide-bbox="true"
     inkscape:zoom="0.32587906"
     inkscape:cx="518.59729"
     inkscape:cy="570.76389"
     inkscape:window-width="1247"
     inkscape:window-height="991"
     inkscape:window-x="26"
     inkscape:window-y="23"
     inkscape:window-maximized="0"
     inkscape:current-layer="text14348">
    <sodipodi:guide
       position="-6.4057285,-44.431044"
       orientation="1,0"
       id="guide3625" />
    <sodipodi:guide
       position="45.936811,-71.530984"
       orientation="1,0"
       id="guide3627" />
    <sodipodi:guide
       position="-58.624228,-123.84291"
       orientation="1,0"
       id="guide3629" />
    <sodipodi:guide
       position="-43.782605,-90.423018"
       orientation="0,-1"
       id="guide11943" />
    <sodipodi:guide
       position="78.579451,16.900539"
       orientation="0,-1"
       id="guide56128" />
    <sodipodi:guide
       position="92.595251,50.992229"
       orientation="0,-1"
       id="guide80090" />
  </sodipodi:namedview>
  <defs
     id="defs2" />
  <g
     inkscape:label="Capa 1"
     inkscape:groupmode="layer"
     id="layer1"
     transform="translate(-107.92322,-31.05736)">
    <g
       id="g43418"
       transform="translate(60.855088,-122.85838)">
      <path
         id="path682-1-6"
         style="mix-blend-mode:normal;fill:#0b4e54;fill-opacity:1;stroke:none;stroke-width:1.07895;stroke-linejoin:round;stroke-opacity:0"
         d="m 339.44922,595.32227 c -88.16708,13.36084 -153.95997,65.77064 -153.96094,128.39453 0.0406,1.07924 0.10114,2.1581 0.18164,3.23632 -0.0805,0.70209 -0.14108,1.40462 -0.18164,2.10743 6.09765,48.35418 88.74912,85.71844 198.22461,85.71875 109.47628,1.9e-4 190.61236,-39.39626 198.22656,-85.71875 -0.0412,-0.70277 -0.10233,-1.40534 -0.18359,-2.10743 0.0813,-1.07822 0.1424,-2.15708 0.18359,-3.23632 -8.4e-4,-62.62393 -65.79567,-115.03374 -153.96289,-128.39453 2.55149,3.90608 3.96868,8.21473 3.96875,12.74414 -0.011,0.2626 -0.026,0.52481 -0.0449,0.78711 0.0185,0.17079 0.0411,0.34245 0.0449,0.51367 -1.85268,11.2713 -21.59435,20.85746 -48.23242,20.85742 -26.63792,-1.1e-4 -46.74871,-9.09175 -48.23242,-20.85742 0.009,-0.1708 0.0233,-0.34246 0.043,-0.51367 -0.0199,-0.2623 -0.0331,-0.52444 -0.043,-0.78711 7e-5,-4.52963 1.41704,-8.83791 3.96875,-12.74414 z"
         transform="scale(0.26458333)" />
      <path
         id="path682-1-6-0-94-8"
         style="fill:#0b4e54;fill-opacity:1;stroke:none;stroke-width:2.42983;stroke-linejoin:round;stroke-miterlimit:4;stroke-dasharray:none;stroke-opacity:1"
         d="m 101.44771,153.91574 c -5.931159,3e-5 -10.739323,2.95904 -10.739384,6.60923 0.0021,0.0541 0.0054,0.1083 0.0098,0.1624 -0.0044,0.0353 -0.0077,0.0706 -0.0098,0.10577 0.330358,2.42668 4.808238,4.30182 10.739384,4.30185 5.9312,0 10.32699,-1.97714 10.73951,-4.30185 -8.4e-4,-0.0353 -0.005,-0.0705 -0.0101,-0.10577 0.004,-0.054 0.007,-0.10825 0.0101,-0.1624 -6e-5,-3.65019 -4.80824,-6.6092 -10.73941,-6.60923 z"
         sodipodi:nodetypes="scccscccss" />
      <path
         id="path682-1-6-2"
         style="fill:#0b4e54;fill-opacity:1;stroke-width:0.0675714;stroke-linejoin:round"
         d="m 84.980667,220.24085 c -6.121518,3.08775 -9.421005,8.88778 -7.369662,12.95481 0.03268,0.0592 0.06649,0.11784 0.10143,0.17584 0.01535,0.0415 0.03177,0.0825 0.04929,0.12296 1.70477,2.53183 8.596087,3.10266 14.717608,0.015 6.121563,-3.08771 8.331397,-8.39174 7.45064,-11.1967 -0.0221,-0.0382 -0.0453,-0.0757 -0.0697,-0.11266 -0.0259,-0.0626 -0.0529,-0.12462 -0.081,-0.18614 -2.051459,-4.06697 -8.090447,-4.35314 -14.798476,-1.77313 z"
         sodipodi:nodetypes="scccscccss" />
      <path
         id="path682-1-6-2-6"
         style="fill:#0b4e54;fill-opacity:1;stroke-width:0.0675714;stroke-linejoin:round"
         d="m 118.05431,220.24085 c 6.12152,3.08775 9.421,8.88778 7.36966,12.95481 -0.0327,0.0592 -0.0665,0.11784 -0.10143,0.17584 -0.0153,0.0415 -0.0318,0.0825 -0.0493,0.12296 -1.70477,2.53183 -7.38021,2.28996 -13.50173,-0.79773 -6.12156,-3.08771 -9.54726,-7.57904 -8.66651,-10.384 0.0221,-0.0382 0.0453,-0.0757 0.0697,-0.11266 0.0259,-0.0626 0.0529,-0.12462 0.081,-0.18614 2.05145,-4.06697 8.67692,-4.86082 14.79847,-1.77313 z"
         sodipodi:nodetypes="scccscccss" />
      <path
         id="path682-1-6-2-6-7-2"
         style="fill:#0b4e54;fill-opacity:1;stroke-width:0.0632869;stroke-linejoin:round"
         d="m 50.618757,217.23385 c 4.082333,4.96354 10.042007,6.76958 13.311376,4.03393 0.04701,-0.0425 0.09328,-0.0857 0.138699,-0.12997 0.03451,-0.0227 0.06838,-0.0464 0.101506,-0.071 3.667883,-2.3105 3.531171,-9.37087 -2.777539,-11.65291 -6.506665,-2.35365 -9.061258,-7.96 -12.005979,-6.3219 -0.03013,0.0283 -0.05941,0.0574 -0.08783,0.0876 -0.0515,0.0368 -0.102253,0.0747 -0.152322,0.11339 -3.269294,2.73573 -2.610224,8.97721 1.472067,13.94079 z"
         sodipodi:nodetypes="scccscccss" />
      <path
         id="path682-1-6-2-6-7-2-4"
         style="fill:#0b4e54;fill-opacity:1;stroke-width:0.0632869;stroke-linejoin:round"
         d="m 152.54029,217.23385 c -4.08233,4.96354 -10.042,6.76958 -13.31137,4.03393 -0.047,-0.0425 -0.0933,-0.0857 -0.1387,-0.12997 -0.0345,-0.0227 -0.0684,-0.0464 -0.10151,-0.071 -3.66788,-2.3105 -3.53117,-9.37087 2.77754,-11.65291 6.50667,-2.35365 9.06126,-7.96 12.00598,-6.3219 0.0301,0.0283 0.0594,0.0574 0.0878,0.0876 0.0515,0.0368 0.10225,0.0747 0.15232,0.11339 3.2693,2.73573 2.61023,8.97721 -1.47207,13.94079 z"
         sodipodi:nodetypes="scccscccss" />
      <ellipse
         style="fill:#ffffff;stroke-width:0.285473;stroke-linejoin:round"
         id="path942-0"
         cx="81.224167"
         cy="194.42616"
         rx="10.688137"
         ry="9.2100382" />
      <ellipse
         style="fill:#ffffff;stroke-width:0.285473;stroke-linejoin:round"
         id="path942-5-6"
         cx="121.78503"
         cy="194.4043"
         rx="10.688137"
         ry="9.2100382" />
      <rect
         style="fill:#0b4e54;fill-opacity:1;stroke-width:0.264999;stroke-linejoin:round"
         id="rect1793-1"
         width="5.3669219"
         height="18.798912"
         x="89.601433"
         y="205.61891" />
      <rect
         style="fill:#0b4e54;fill-opacity:1;stroke-width:0.264999;stroke-linejoin:round"
         id="rect1793-6-8"
         width="5.3669219"
         height="18.798912"
         x="107.75457"
         y="205.79948" />
    </g>
    <g
       aria-label="X-Robot"
       id="text14348"
       style="font-size:87.9539px;line-height:1.25;word-spacing:0px;fill:#0b4e54;stroke-width:0.458094">
      <path
         d="m 232.83108,57.628573 q 0,-4.397695 5.80496,-4.397695 h 8.0038 q 5.89292,0 5.89292,4.397695 0,2.726571 -3.34225,4.309741 l 8.35562,9.586976 8.17971,-9.586976 q -3.34225,-1.671124 -3.34225,-4.309741 0,-4.397695 5.89292,-4.397695 h 7.91585 q 5.80495,0 5.80495,4.397695 0,2.02294 -1.40726,3.254294 -1.31931,1.143401 -3.60611,1.143401 l -13.80876,16.359426 14.6883,17.326919 q 2.46271,0 3.78202,1.231355 1.40726,1.1434 1.40726,3.166342 0,4.39769 -5.80496,4.39769 h -9.76288 q -5.80496,0 -5.80496,-4.39769 0,-2.022942 1.23136,-3.166342 1.31931,-1.231355 3.60611,-1.231355 l -8.88335,-10.554468 -8.9713,10.554468 q 2.19885,0 3.43021,1.231355 1.31931,1.1434 1.31931,3.166342 0,4.39769 -5.80496,4.39769 h -9.76289 q -5.80495,0 -5.80495,-4.39769 0,-2.022942 1.31931,-3.166342 1.40726,-1.231355 3.86997,-1.231355 L 251.82913,78.29774 237.93241,62.026268 q -2.37476,0 -3.78202,-1.143401 -1.31931,-1.231354 -1.31931,-3.254294 z"
         style="font-weight:bold;font-family:'Tlwg Mono';-inkscape-font-specification:'Tlwg Mono Bold'"
         id="path81595" />
      <path
         d="m 327.20549,84.366559 h -33.7743 q -5.80496,0 -5.80496,-4.397695 0,-4.397695 5.80496,-4.397695 h 33.7743 q 5.80496,0 5.80496,4.397695 0,4.397695 -5.80496,4.397695 z"
         style="font-weight:bold;font-family:'Tlwg Mono';-inkscape-font-specification:'Tlwg Mono Bold'"
         id="path81597" />
      <path
         d="m 356.84582,95.712613 q 5.80496,0 5.80496,4.397697 0,4.39769 -5.80496,4.39769 h -13.19309 q -5.80495,0 -5.80495,-4.39769 0,-4.397697 5.80495,-4.397697 h 1.31931 V 62.026268 h -1.31931 q -5.80495,0 -5.80495,-4.397695 0,-4.397695 5.80495,-4.397695 h 19.61372 q 8.53153,0 13.89672,4.397695 5.45314,4.309741 5.45314,11.258099 0,8.09176 -9.49902,13.28104 5.71701,5.013372 11.08219,13.544901 h 1.1434 q 5.80496,0 5.80496,4.397697 0,4.39769 -5.80496,4.39769 h -6.94835 q -3.2543,-6.332678 -8.35562,-12.401497 -5.01338,-6.156773 -7.8279,-7.124266 h -8.44358 v 10.730376 z m -3.07839,-19.525767 h 6.6845 q 5.5411,0 9.14721,-2.110893 3.69406,-2.198848 3.69406,-5.453142 0,-2.814525 -2.72657,-4.661557 -2.72657,-1.934986 -6.94836,-1.934986 h -9.85084 z"
         style="font-weight:bold;font-family:'Tlwg Mono';-inkscape-font-specification:'Tlwg Mono Bold'"
         id="path81599" />
      <path
         d="m 416.12661,64.928747 q 9.32311,0 15.8317,5.980865 6.59655,5.980866 6.59655,14.512394 0,8.619483 -6.59655,14.600344 -6.59654,5.89292 -16.09556,5.89292 -9.49902,0 -16.09557,-5.89292 -6.59654,-5.980861 -6.59654,-14.600344 0,-8.707436 6.59654,-14.600348 6.59655,-5.892911 16.35943,-5.892911 z m -0.088,8.79539 q -5.98087,0 -10.02675,3.342248 -4.04588,3.342249 -4.04588,8.355621 0,4.925419 3.95793,8.355621 4.04588,3.342248 9.93879,3.342248 5.89291,0 9.85084,-3.342248 4.04588,-3.430202 4.04588,-8.355621 0,-4.925418 -4.04588,-8.267667 -3.95793,-3.430202 -9.67493,-3.430202 z"
         style="font-weight:bold;font-family:'Tlwg Mono';-inkscape-font-specification:'Tlwg Mono Bold'"
         id="path81601" />
      <path
         d="m 492.47047,85.334052 q 0,8.091759 -5.62905,14.248533 -5.62905,6.156775 -16.00761,6.156775 -7.03631,0 -13.28104,-4.30974 v 3.07838 h -10.20265 q -5.80496,0 -5.80496,-4.39769 0,-4.397697 5.80496,-4.397697 h 1.40726 V 58.420158 h -1.40726 q -5.80496,0 -5.80496,-4.397695 0,-4.397695 5.80496,-4.397695 h 10.20265 v 19.61372 q 5.5411,-4.397695 13.19309,-4.397695 5.36519,0 9.58697,1.847032 4.30975,1.759078 6.86041,4.749511 2.63862,2.902478 3.95792,6.508588 1.31931,3.518157 1.31931,7.388128 z M 470.65791,73.636183 q -3.69407,0 -6.42064,1.231355 -2.72657,1.231355 -4.13383,3.16634 -1.31931,1.934986 -1.93499,3.694064 -0.61568,1.759078 -0.61568,3.430203 0,5.18928 3.60611,8.531528 3.69407,3.254295 9.49903,3.254295 5.717,0 9.32311,-3.254295 3.69406,-3.342248 3.69406,-8.443575 0,-1.58317 -0.61567,-3.342248 -0.61568,-1.847032 -2.02294,-3.782018 -1.31931,-1.934986 -4.04588,-3.16634 -2.72657,-1.319309 -6.33268,-1.319309 z"
         style="font-weight:bold;font-family:'Tlwg Mono';-inkscape-font-specification:'Tlwg Mono Bold'"
         id="path81603" />
      <path
         d="m 521.67104,64.928747 q 9.32312,0 15.83171,5.980865 6.59654,5.980866 6.59654,14.512394 0,8.619483 -6.59654,14.600344 -6.59655,5.89292 -16.09557,5.89292 -9.49902,0 -16.09556,-5.89292 -6.59654,-5.980861 -6.59654,-14.600344 0,-8.707436 6.59654,-14.600348 6.59654,-5.892911 16.35942,-5.892911 z m -0.0879,8.79539 q -5.98087,0 -10.02674,3.342248 -4.04588,3.342249 -4.04588,8.355621 0,4.925419 3.95792,8.355621 4.04588,3.342248 9.93879,3.342248 5.89291,0 9.85084,-3.342248 4.04588,-3.430202 4.04588,-8.355621 0,-4.925418 -4.04588,-8.267667 -3.95793,-3.430202 -9.67493,-3.430202 z"
         style="font-weight:bold;font-family:'Tlwg Mono';-inkscape-font-specification:'Tlwg Mono Bold'"
         id="path81605" />
      <path
         d="m 574.17937,97.119875 q 4.30974,0 7.65199,-0.967493 3.34225,-0.967493 5.27723,-1.934985 1.93499,-1.055447 2.99044,-1.055447 1.75907,0 2.99043,1.319308 1.23135,1.319309 1.23135,3.166341 0,1.58317 -0.96749,2.638621 -0.96749,0.96749 -3.4302,2.11089 -3.16634,1.49522 -7.8279,2.46271 -4.5736,1.05545 -8.00381,1.05545 -7.47608,0 -11.87377,-3.2543 -4.3977,-3.254293 -4.3977,-8.883343 V 74.867538 h -3.07838 q -5.80496,0 -5.80496,-4.397695 0,-4.397695 5.80496,-4.397695 h 3.07838 v -7.739944 q 0,-5.804958 4.3977,-5.804958 4.39769,0 4.39769,5.804958 v 7.739944 h 15.91966 q 5.80496,0 5.80496,4.397695 0,4.397695 -5.80496,4.397695 h -15.91966 v 17.238965 q 0,3.16634 1.67113,4.133833 1.67112,0.879539 5.89291,0.879539 z"
         style="font-weight:bold;font-family:'Tlwg Mono';-inkscape-font-specification:'Tlwg Mono Bold'"
         id="path81607" />
    </g>
  </g>
</svg>
