<?xml version="1.0" encoding="UTF-8" standalone="no"?><svg xmlns="http://www.w3.org/2000/svg" xmlns:xlink="http://www.w3.org/1999/xlink" contentScriptType="application/ecmascript" contentStyleType="text/css" height="711px" preserveAspectRatio="none" style="width:275px;height:711px;background:#FFFFFF;" version="1.1" viewBox="0 0 275 711" width="275px" zoomAndPan="magnify"><defs/><g><text fill="#000000" font-family="sans-serif" font-size="18" lengthAdjust="spacing" textLength="128" x="67.495" y="16.708">Word Machine</text><rect fill="#FFFFFF" height="677.2969" rx="12.5" ry="12.5" style="stroke:#708090;stroke-width:1.5;" width="261.99" x="7" y="27.9531"/><rect fill="#FFFFFF" height="645" rx="12.5" ry="12.5" style="stroke:#FFFFFF;stroke-width:1.0;" width="255.99" x="10" y="57.25"/><line style="stroke:#708090;stroke-width:1.5;" x1="7" x2="268.99" y1="54.25" y2="54.25"/><text fill="#000000" font-family="monospace" font-size="14" lengthAdjust="spacing" textLength="120" x="77.995" y="45.9482">Parallel states</text><path d="M18,73.75 L18,98.8828 L71,98.8828 L71,83.75 L61,73.75 L18,73.75 " fill="#FFFFFF" style="stroke:#708090;stroke-width:1.0;"/><path d="M61,73.75 L61,83.75 L71,83.75 L61,73.75 " fill="#FFFFFF" style="stroke:#708090;stroke-width:1.0;"/><text fill="#000000" font-family="monospace" font-size="13" lengthAdjust="spacing" textLength="32" x="24" y="90.8169">Bold</text><rect fill="#FFFFFF" height="40" rx="12.5" ry="12.5" style="stroke:#708090;stroke-width:1.5;" width="50" x="89.5" y="66.25"/><text fill="#000000" font-family="monospace" font-size="14" lengthAdjust="spacing" textLength="16" x="106.5" y="91.0967">on</text><rect fill="#FFFFFF" height="40" rx="12.5" ry="12.5" style="stroke:#708090;stroke-width:1.5;" width="50" x="123.5" y="159.25"/><text fill="#000000" font-family="monospace" font-size="14" lengthAdjust="spacing" textLength="24" x="136.5" y="184.0967">off</text><ellipse cx="181.5" cy="86.25" fill="#000000" rx="10" ry="10" style="stroke:none;stroke-width:1.0;"/><!--MD5=[8116cf155b0f317aaf929a049c4dc091]
link *start*WordMachineParallelStates to WordMachineBoldOff--><path d="M179.81,96.23 C177.61,107.1 173.36,125.86 167.5,141.25 C165.84,145.61 163.8,150.13 161.69,154.44 " fill="none" id="*start*WordMachineParallelStates-to-WordMachineBoldOff" style="stroke:#708090;stroke-width:2.0;"/><polygon fill="#708090" points="159.38,159.03,166.9906,152.7787,161.6218,154.5607,159.8398,149.1919,159.38,159.03" style="stroke:#708090;stroke-width:2.0;"/><!--MD5=[e651da0776c943798cdfcd9d46a65288]
link WordMachineBoldOn to WordMachineBoldOff--><path d="M103.17,106.41 C98.42,117.05 95.11,130.3 100.5,141.25 C104.65,149.69 111.76,156.75 119.26,162.37 " fill="none" id="WordMachineBoldOn-to-WordMachineBoldOff" style="stroke:#708090;stroke-width:2.0;"/><polygon fill="#708090" points="123.44,165.34,118.4301,156.8606,119.3675,162.4392,113.7888,163.3766,123.44,165.34" style="stroke:#708090;stroke-width:2.0;"/><text fill="#000000" font-family="monospace" font-size="13" lengthAdjust="spacing" textLength="24" x="101.5" y="137.3169">off</text><!--MD5=[cd9f96340b52948d2b7d5e683557da9c]
link WordMachineBoldOff to WordMachineBoldOn--><path d="M141.3,158.98 C136.12,145.11 129.09,126.31 123.53,111.43 " fill="none" id="WordMachineBoldOff-to-WordMachineBoldOn" style="stroke:#708090;stroke-width:2.0;"/><polygon fill="#708090" points="121.71,106.55,121.1248,116.3815,123.4656,111.2316,128.6154,113.5725,121.71,106.55" style="stroke:#708090;stroke-width:2.0;"/><text fill="#000000" font-family="monospace" font-size="13" lengthAdjust="spacing" textLength="16" x="135.5" y="137.3169">on</text><line style="stroke:#708090;stroke-width:1.5;stroke-dasharray:8.0,10.0;" x1="12" x2="261.99" y1="204.25" y2="204.25"/><path d="M18,218.75 L18,243.8828 L111,243.8828 L111,228.75 L101,218.75 L18,218.75 " fill="#FFFFFF" style="stroke:#708090;stroke-width:1.0;"/><path d="M101,218.75 L101,228.75 L111,228.75 L101,218.75 " fill="#FFFFFF" style="stroke:#708090;stroke-width:1.0;"/><text fill="#000000" font-family="monospace" font-size="13" lengthAdjust="spacing" textLength="72" x="24" y="235.8169">Underline</text><rect fill="#FFFFFF" height="40" rx="12.5" ry="12.5" style="stroke:#708090;stroke-width:1.5;" width="50" x="129.5" y="211.25"/><text fill="#000000" font-family="monospace" font-size="14" lengthAdjust="spacing" textLength="16" x="146.5" y="236.0967">on</text><rect fill="#FFFFFF" height="40" rx="12.5" ry="12.5" style="stroke:#708090;stroke-width:1.5;" width="50" x="163.5" y="304.25"/><text fill="#000000" font-family="monospace" font-size="14" lengthAdjust="spacing" textLength="24" x="176.5" y="329.0967">off</text><ellipse cx="221.5" cy="231.25" fill="#000000" rx="10" ry="10" style="stroke:none;stroke-width:1.0;"/><!--MD5=[426eca9c6e6008a2e571d8ff2d03765b]
link *start*CONC12 to WordMachineUnderlineOff--><path d="M219.81,241.23 C217.61,252.1 213.36,270.86 207.5,286.25 C205.84,290.61 203.8,295.13 201.69,299.44 " fill="none" id="*start*CONC12-to-WordMachineUnderlineOff" style="stroke:#708090;stroke-width:2.0;"/><polygon fill="#708090" points="199.38,304.03,206.9906,297.7787,201.6218,299.5607,199.8398,294.1919,199.38,304.03" style="stroke:#708090;stroke-width:2.0;"/><!--MD5=[deeef3cd9eda4632525ed4e4e8909ffe]
link WordMachineUnderlineOn to WordMachineUnderlineOff--><path d="M143.17,251.41 C138.42,262.05 135.11,275.3 140.5,286.25 C144.65,294.69 151.76,301.75 159.26,307.37 " fill="none" id="WordMachineUnderlineOn-to-WordMachineUnderlineOff" style="stroke:#708090;stroke-width:2.0;"/><polygon fill="#708090" points="163.44,310.34,158.4301,301.8606,159.3675,307.4392,153.7888,308.3766,163.44,310.34" style="stroke:#708090;stroke-width:2.0;"/><text fill="#000000" font-family="monospace" font-size="13" lengthAdjust="spacing" textLength="24" x="141.5" y="282.3169">off</text><!--MD5=[c281b977eb27f0131a29b5b342c9517a]
link WordMachineUnderlineOff to WordMachineUnderlineOn--><path d="M181.3,303.98 C176.12,290.11 169.09,271.31 163.53,256.43 " fill="none" id="WordMachineUnderlineOff-to-WordMachineUnderlineOn" style="stroke:#708090;stroke-width:2.0;"/><polygon fill="#708090" points="161.71,251.55,161.1248,261.3815,163.4656,256.2316,168.6154,258.5725,161.71,251.55" style="stroke:#708090;stroke-width:2.0;"/><text fill="#000000" font-family="monospace" font-size="13" lengthAdjust="spacing" textLength="16" x="175.5" y="282.3169">on</text><line style="stroke:#708090;stroke-width:1.5;stroke-dasharray:8.0,10.0;" x1="12" x2="261.99" y1="349.25" y2="349.25"/><path d="M18,363.75 L18,388.8828 L95,388.8828 L95,373.75 L85,363.75 L18,363.75 " fill="#FFFFFF" style="stroke:#708090;stroke-width:1.0;"/><path d="M85,363.75 L85,373.75 L95,373.75 L85,363.75 " fill="#FFFFFF" style="stroke:#708090;stroke-width:1.0;"/><text fill="#000000" font-family="monospace" font-size="13" lengthAdjust="spacing" textLength="56" x="24" y="380.8169">Italics</text><rect fill="#FFFFFF" height="40" rx="12.5" ry="12.5" style="stroke:#708090;stroke-width:1.5;" width="50" x="113.5" y="356.25"/><text fill="#000000" font-family="monospace" font-size="14" lengthAdjust="spacing" textLength="16" x="130.5" y="381.0967">on</text><rect fill="#FFFFFF" height="40" rx="12.5" ry="12.5" style="stroke:#708090;stroke-width:1.5;" width="50" x="147.5" y="449.25"/><text fill="#000000" font-family="monospace" font-size="14" lengthAdjust="spacing" textLength="24" x="160.5" y="474.0967">off</text><ellipse cx="205.5" cy="376.25" fill="#000000" rx="10" ry="10" style="stroke:none;stroke-width:1.0;"/><!--MD5=[85f97eabbb976c34460dcb6a02495339]
link *start*CONC21 to WordMachineItalicsOff--><path d="M203.81,386.23 C201.61,397.1 197.36,415.86 191.5,431.25 C189.84,435.61 187.8,440.13 185.69,444.44 " fill="none" id="*start*CONC21-to-WordMachineItalicsOff" style="stroke:#708090;stroke-width:2.0;"/><polygon fill="#708090" points="183.38,449.03,190.9906,442.7787,185.6218,444.5607,183.8398,439.1919,183.38,449.03" style="stroke:#708090;stroke-width:2.0;"/><!--MD5=[85eaefd4bc237a12030ca1109def925e]
link WordMachineItalicsOn to WordMachineItalicsOff--><path d="M127.17,396.41 C122.42,407.05 119.11,420.3 124.5,431.25 C128.65,439.69 135.76,446.75 143.26,452.37 " fill="none" id="WordMachineItalicsOn-to-WordMachineItalicsOff" style="stroke:#708090;stroke-width:2.0;"/><polygon fill="#708090" points="147.44,455.34,142.4301,446.8606,143.3675,452.4392,137.7888,453.3766,147.44,455.34" style="stroke:#708090;stroke-width:2.0;"/><text fill="#000000" font-family="monospace" font-size="13" lengthAdjust="spacing" textLength="24" x="125.5" y="427.3169">off</text><!--MD5=[ef4ba1c2102b147ecdeaa28803698a8c]
link WordMachineItalicsOff to WordMachineItalicsOn--><path d="M165.3,448.98 C160.12,435.11 153.09,416.31 147.53,401.43 " fill="none" id="WordMachineItalicsOff-to-WordMachineItalicsOn" style="stroke:#708090;stroke-width:2.0;"/><polygon fill="#708090" points="145.71,396.55,145.1248,406.3815,147.4656,401.2316,152.6154,403.5725,145.71,396.55" style="stroke:#708090;stroke-width:2.0;"/><text fill="#000000" font-family="monospace" font-size="13" lengthAdjust="spacing" textLength="16" x="159.5" y="427.3169">on</text><line style="stroke:#708090;stroke-width:1.5;stroke-dasharray:8.0,10.0;" x1="12" x2="261.99" y1="494.25" y2="494.25"/><path d="M53.49,500.25 L53.49,525.3828 L106.49,525.3828 L106.49,510.25 L96.49,500.25 L53.49,500.25 " fill="#FFFFFF" style="stroke:#708090;stroke-width:1.0;"/><path d="M96.49,500.25 L96.49,510.25 L106.49,510.25 L96.49,500.25 " fill="#FFFFFF" style="stroke:#708090;stroke-width:1.0;"/><text fill="#000000" font-family="monospace" font-size="13" lengthAdjust="spacing" textLength="32" x="59.49" y="517.3169">List</text><rect fill="#FFFFFF" height="40" rx="12.5" ry="12.5" style="stroke:#708090;stroke-width:1.5;" width="50" x="109.99" y="562.25"/><text fill="#000000" font-family="monospace" font-size="14" lengthAdjust="spacing" textLength="32" x="118.99" y="587.0967">none</text><rect fill="#FFFFFF" height="40" rx="12.5" ry="12.5" style="stroke:#708090;stroke-width:1.5;" width="66" x="46.99" y="655.25"/><text fill="#000000" font-family="monospace" font-size="14" lengthAdjust="spacing" textLength="56" x="51.99" y="680.0967">bullets</text><rect fill="#FFFFFF" height="40" rx="12.5" ry="12.5" style="stroke:#708090;stroke-width:1.5;" width="66" x="157.99" y="655.25"/><text fill="#000000" font-family="monospace" font-size="14" lengthAdjust="spacing" textLength="56" x="162.99" y="680.0967">numbers</text><ellipse cx="134.99" cy="512.75" fill="#000000" rx="10" ry="10" style="stroke:none;stroke-width:1.0;"/><!--MD5=[21b8f9659a95934ce19cb012c0b1104c]
link *start*CONC30 to WordMachineListNone--><path d="M134.99,522.85 C134.99,531.53 134.99,544.98 134.99,556.79 " fill="none" id="*start*CONC30-to-WordMachineListNone" style="stroke:#708090;stroke-width:2.0;"/><polygon fill="#708090" points="134.99,562.08,138.99,553.08,134.99,557.08,130.99,553.08,134.99,562.08" style="stroke:#708090;stroke-width:2.0;"/><!--MD5=[4a495898a4353ed7c30c8b347012b16f]
link WordMachineListNone to WordMachineListBullets--><path d="M109.55,583.99 C83.95,586.25 45.66,594.12 26.99,620.25 C18,632.84 28.5,645.28 42.47,655.04 " fill="none" id="WordMachineListNone-to-WordMachineListBullets" style="stroke:#708090;stroke-width:2.0;"/><polygon fill="#708090" points="46.9,657.98,41.6105,649.6721,42.7332,655.2164,37.1888,656.339,46.9,657.98" style="stroke:#708090;stroke-width:2.0;"/><text fill="#000000" font-family="monospace" font-size="13" lengthAdjust="spacing" textLength="56" x="27.99" y="633.3169">bullets</text><!--MD5=[cee2133f485bb52d5e1f544c9d3ea4b8]
link WordMachineListNone to WordMachineListNumbers--><path d="M144.93,602.28 C150.55,612.75 157.87,625.89 164.99,637.25 C167.74,641.64 170.81,646.23 173.83,650.62 " fill="none" id="WordMachineListNone-to-WordMachineListNumbers" style="stroke:#708090;stroke-width:2.0;"/><polygon fill="#708090" points="176.84,654.92,174.9761,645.2491,173.9813,650.8178,168.4126,649.823,176.84,654.92" style="stroke:#708090;stroke-width:2.0;"/><text fill="#000000" font-family="monospace" font-size="13" lengthAdjust="spacing" textLength="56" x="165.99" y="633.3169">numbers</text><!--MD5=[79c547c50c9a5108883f95477a233eec]
link WordMachineListBullets to WordMachineListNone--><path d="M89.03,655.12 C94.21,644.61 101.04,631.47 107.99,620.25 C110.76,615.79 113.89,611.17 117.02,606.77 " fill="none" id="WordMachineListBullets-to-WordMachineListNone" style="stroke:#708090;stroke-width:2.0;"/><polygon fill="#708090" points="120.13,602.45,111.6191,607.4063,117.2036,606.5041,118.1058,612.0886,120.13,602.45" style="stroke:#708090;stroke-width:2.0;"/><text fill="#000000" font-family="monospace" font-size="13" lengthAdjust="spacing" textLength="32" x="108.99" y="633.3169">none</text><!--MD5=[9b3c3b6fed30f1e459823e38502f0a65]
link WordMachineListNumbers to WordMachineListNone--><path d="M213.48,655.21 C223.08,644.74 230.53,631.6 222.99,620.25 C210.23,601.03 185.32,591.78 165.26,587.33 " fill="none" id="WordMachineListNumbers-to-WordMachineListNone" style="stroke:#708090;stroke-width:2.0;"/><polygon fill="#708090" points="160.27,586.3,168.269,592.0459,165.1656,587.3163,169.8952,584.2129,160.27,586.3" style="stroke:#708090;stroke-width:2.0;"/><text fill="#000000" font-family="monospace" font-size="13" lengthAdjust="spacing" textLength="32" x="226.99" y="633.3169">none</text><!--MD5=[2e1f22606fc31928c559aac4910716a2]
@startuml

title Word Machine


state "Parallel states" as WordMachineParallelStates {
  note "Bold" as NWordMachineBold

  state "on" as WordMachineBoldOn<<default>>
  state "off" as WordMachineBoldOff<<default>>

  [*] - -> WordMachineBoldOff
  WordMachineBoldOn -[#slategray]-> WordMachineBoldOff: off
  WordMachineBoldOff -[#slategray]-> WordMachineBoldOn: on

  - -

  note "Underline" as NWordMachineUnderline

  state "on" as WordMachineUnderlineOn<<default>>
  state "off" as WordMachineUnderlineOff<<default>>

  [*] - -> WordMachineUnderlineOff
  WordMachineUnderlineOn -[#slategray]-> WordMachineUnderlineOff: off
  WordMachineUnderlineOff -[#slategray]-> WordMachineUnderlineOn: on

  - -

  note "Italics" as NWordMachineItalics

  state "on" as WordMachineItalicsOn<<default>>
  state "off" as WordMachineItalicsOff<<default>>

  [*] - -> WordMachineItalicsOff
  WordMachineItalicsOn -[#slategray]-> WordMachineItalicsOff: off
  WordMachineItalicsOff -[#slategray]-> WordMachineItalicsOn: on

  - -

  note "List" as NWordMachineList

  state "none" as WordMachineListNone<<default>>
  state "bullets" as WordMachineListBullets<<default>>
  state "numbers" as WordMachineListNumbers<<default>>

  [*] - -> WordMachineListNone
  WordMachineListNone -[#slategray]-> WordMachineListBullets: bullets
  WordMachineListNone -[#slategray]-> WordMachineListNumbers: numbers
  WordMachineListBullets -[#slategray]-> WordMachineListNone: none
  WordMachineListNumbers -[#slategray]-> WordMachineListNone: none
}

hide empty description
skinparam backgroundColor white
skinparam shadowing false
skinparam note {
  BackgroundColor white
  BorderColor slategray
  FontName monospaced
}
skinparam ArrowFontName monospaced
skinparam state {
  FontName monospaced
  AttributeFontName monospaced
  BackgroundColor white
  BorderColor slategray
  ArrowColor slategray
  ArrowThickness 2
  MessageAlignment left
  BackgroundColor<<danger>> Implementation
  BorderColor<<danger>> indianred
  BackgroundColor<<info>> Application
  BorderColor<<info>> skyblue
  BackgroundColor<<warning>> Strategy
  BorderColor<<warning>> tan
  BackgroundColor<<success>> Technology
  BorderColor<<success>> mediumseagreen
  BackgroundColor<<primary>> Motivation
  BorderColor<<primary>> lightsteelblue
}
@enduml

PlantUML version 1.2021.12(Tue Oct 05 11:01:58 CDT 2021)
(GPL source distribution)
Java Runtime: OpenJDK Runtime Environment
JVM: OpenJDK 64-Bit Server VM
Default Encoding: UTF-8
Language: es
Country: MX
--></g></svg>