<?xml version="1.0" encoding="UTF-8" standalone="no"?>
<!-- Created with Inkscape (http://www.inkscape.org/) -->

<svg
   width="109.02276mm"
   height="81.699226mm"
   viewBox="0 0 109.02276 81.699226"
   version="1.1"
   id="svg5"
   inkscape:version="1.1.1 (eb90963e84, 2021-10-02)"
   sodipodi:docname="x-robot-logo.svg"
   xmlns:inkscape="http://www.inkscape.org/namespaces/inkscape"
   xmlns:sodipodi="http://sodipodi.sourceforge.net/DTD/sodipodi-0.dtd"
   xmlns="http://www.w3.org/2000/svg"
   xmlns:svg="http://www.w3.org/2000/svg">
  <sodipodi:namedview
     id="namedview7"
     pagecolor="#ffffff"
     bordercolor="#111111"
     borderopacity="1"
     inkscape:pageshadow="0"
     inkscape:pageopacity="0"
     inkscape:pagecheckerboard="false"
     inkscape:document-units="mm"
     showgrid="false"
     showguides="false"
     inkscape:guide-bbox="true"
     inkscape:zoom="0.32587906"
     inkscape:cx="518.59729"
     inkscape:cy="570.76389"
     inkscape:window-width="1247"
     inkscape:window-height="991"
     inkscape:window-x="26"
     inkscape:window-y="23"
     inkscape:window-maximized="0"
     inkscape:current-layer="layer1">
    <sodipodi:guide
       position="-6.4057264,-44.431043"
       orientation="1,0"
       id="guide3625" />
    <sodipodi:guide
       position="45.936812,-71.530982"
       orientation="1,0"
       id="guide3627" />
    <sodipodi:guide
       position="-58.624224,-123.84291"
       orientation="1,0"
       id="guide3629" />
    <sodipodi:guide
       position="-43.782602,-90.423015"
       orientation="0,-1"
       id="guide11943" />
    <sodipodi:guide
       position="78.579451,16.900539"
       orientation="0,-1"
       id="guide56128" />
    <sodipodi:guide
       position="92.59525,50.992227"
       orientation="0,-1"
       id="guide80090" />
  </sodipodi:namedview>
  <defs
     id="defs2" />
  <g
     inkscape:label="Capa 1"
     inkscape:groupmode="layer"
     id="layer1"
     transform="translate(-107.92322,-31.05736)">
    <g
       id="g43418"
       transform="translate(60.855088,-122.85838)">
      <path
         id="path682-1-6"
         style="mix-blend-mode:normal;fill:#0b4e54;fill-opacity:1;stroke:none;stroke-width:1.07895;stroke-linejoin:round;stroke-opacity:0"
         d="m 339.44922,595.32227 c -88.16708,13.36084 -153.95997,65.77064 -153.96094,128.39453 0.0406,1.07924 0.10114,2.1581 0.18164,3.23632 -0.0805,0.70209 -0.14108,1.40462 -0.18164,2.10743 6.09765,48.35418 88.74912,85.71844 198.22461,85.71875 109.47628,1.9e-4 190.61236,-39.39626 198.22656,-85.71875 -0.0412,-0.70277 -0.10233,-1.40534 -0.18359,-2.10743 0.0813,-1.07822 0.1424,-2.15708 0.18359,-3.23632 -8.4e-4,-62.62393 -65.79567,-115.03374 -153.96289,-128.39453 2.55149,3.90608 3.96868,8.21473 3.96875,12.74414 -0.011,0.2626 -0.026,0.52481 -0.0449,0.78711 0.0185,0.17079 0.0411,0.34245 0.0449,0.51367 -1.85268,11.2713 -21.59435,20.85746 -48.23242,20.85742 -26.63792,-1.1e-4 -46.74871,-9.09175 -48.23242,-20.85742 0.009,-0.1708 0.0233,-0.34246 0.043,-0.51367 -0.0199,-0.2623 -0.0331,-0.52444 -0.043,-0.78711 7e-5,-4.52963 1.41704,-8.83791 3.96875,-12.74414 z"
         transform="scale(0.26458333)" />
      <path
         id="path682-1-6-0-94-8"
         style="fill:#0b4e54;fill-opacity:1;stroke:none;stroke-width:2.42983;stroke-linejoin:round;stroke-miterlimit:4;stroke-dasharray:none;stroke-opacity:1"
         d="m 101.44771,153.91574 c -5.931159,3e-5 -10.739323,2.95904 -10.739384,6.60923 0.0021,0.0541 0.0054,0.1083 0.0098,0.1624 -0.0044,0.0353 -0.0077,0.0706 -0.0098,0.10577 0.330358,2.42668 4.808238,4.30182 10.739384,4.30185 5.9312,0 10.32699,-1.97714 10.73951,-4.30185 -8.4e-4,-0.0353 -0.005,-0.0705 -0.0101,-0.10577 0.004,-0.054 0.007,-0.10825 0.0101,-0.1624 -6e-5,-3.65019 -4.80824,-6.6092 -10.73941,-6.60923 z"
         sodipodi:nodetypes="scccscccss" />
      <path
         id="path682-1-6-2"
         style="fill:#0b4e54;fill-opacity:1;stroke-width:0.0675714;stroke-linejoin:round"
         d="m 84.980667,220.24085 c -6.121518,3.08775 -9.421005,8.88778 -7.369662,12.95481 0.03268,0.0592 0.06649,0.11784 0.10143,0.17584 0.01535,0.0415 0.03177,0.0825 0.04929,0.12296 1.70477,2.53183 8.596087,3.10266 14.717608,0.015 6.121563,-3.08771 8.331397,-8.39174 7.45064,-11.1967 -0.0221,-0.0382 -0.0453,-0.0757 -0.0697,-0.11266 -0.0259,-0.0626 -0.0529,-0.12462 -0.081,-0.18614 -2.051459,-4.06697 -8.090447,-4.35314 -14.798476,-1.77313 z"
         sodipodi:nodetypes="scccscccss" />
      <path
         id="path682-1-6-2-6"
         style="fill:#0b4e54;fill-opacity:1;stroke-width:0.0675714;stroke-linejoin:round"
         d="m 118.05431,220.24085 c 6.12152,3.08775 9.421,8.88778 7.36966,12.95481 -0.0327,0.0592 -0.0665,0.11784 -0.10143,0.17584 -0.0153,0.0415 -0.0318,0.0825 -0.0493,0.12296 -1.70477,2.53183 -7.38021,2.28996 -13.50173,-0.79773 -6.12156,-3.08771 -9.54726,-7.57904 -8.66651,-10.384 0.0221,-0.0382 0.0453,-0.0757 0.0697,-0.11266 0.0259,-0.0626 0.0529,-0.12462 0.081,-0.18614 2.05145,-4.06697 8.67692,-4.86082 14.79847,-1.77313 z"
         sodipodi:nodetypes="scccscccss" />
      <path
         id="path682-1-6-2-6-7-2"
         style="fill:#0b4e54;fill-opacity:1;stroke-width:0.0632869;stroke-linejoin:round"
         d="m 50.618757,217.23385 c 4.082333,4.96354 10.042007,6.76958 13.311376,4.03393 0.04701,-0.0425 0.09328,-0.0857 0.138699,-0.12997 0.03451,-0.0227 0.06838,-0.0464 0.101506,-0.071 3.667883,-2.3105 3.531171,-9.37087 -2.777539,-11.65291 -6.506665,-2.35365 -9.061258,-7.96 -12.005979,-6.3219 -0.03013,0.0283 -0.05941,0.0574 -0.08783,0.0876 -0.0515,0.0368 -0.102253,0.0747 -0.152322,0.11339 -3.269294,2.73573 -2.610224,8.97721 1.472067,13.94079 z"
         sodipodi:nodetypes="scccscccss" />
      <path
         id="path682-1-6-2-6-7-2-4"
         style="fill:#0b4e54;fill-opacity:1;stroke-width:0.0632869;stroke-linejoin:round"
         d="m 152.54029,217.23385 c -4.08233,4.96354 -10.042,6.76958 -13.31137,4.03393 -0.047,-0.0425 -0.0933,-0.0857 -0.1387,-0.12997 -0.0345,-0.0227 -0.0684,-0.0464 -0.10151,-0.071 -3.66788,-2.3105 -3.53117,-9.37087 2.77754,-11.65291 6.50667,-2.35365 9.06126,-7.96 12.00598,-6.3219 0.0301,0.0283 0.0594,0.0574 0.0878,0.0876 0.0515,0.0368 0.10225,0.0747 0.15232,0.11339 3.2693,2.73573 2.61023,8.97721 -1.47207,13.94079 z"
         sodipodi:nodetypes="scccscccss" />
      <ellipse
         style="fill:#ffffff;stroke-width:0.285473;stroke-linejoin:round"
         id="path942-0"
         cx="81.224167"
         cy="194.42616"
         rx="10.688137"
         ry="9.2100382" />
      <ellipse
         style="fill:#ffffff;stroke-width:0.285473;stroke-linejoin:round"
         id="path942-5-6"
         cx="121.78503"
         cy="194.4043"
         rx="10.688137"
         ry="9.2100382" />
      <rect
         style="fill:#0b4e54;fill-opacity:1;stroke-width:0.264999;stroke-linejoin:round"
         id="rect1793-1"
         width="5.3669219"
         height="18.798912"
         x="89.601433"
         y="205.61891" />
      <rect
         style="fill:#0b4e54;fill-opacity:1;stroke-width:0.264999;stroke-linejoin:round"
         id="rect1793-6-8"
         width="5.3669219"
         height="18.798912"
         x="107.75457"
         y="205.79948" />
    </g>
  </g>
</svg>
