<?xml version="1.0" encoding="UTF-8" standalone="no"?><svg xmlns="http://www.w3.org/2000/svg" xmlns:xlink="http://www.w3.org/1999/xlink" contentScriptType="application/ecmascript" contentStyleType="text/css" height="299px" preserveAspectRatio="none" style="width:215px;height:299px;background:#FFFFFF;" version="1.1" viewBox="0 0 215 299" width="215px" zoomAndPan="magnify"><defs/><g><text fill="#000000" font-family="sans-serif" font-size="18" lengthAdjust="spacing" textLength="102" x="50.045" y="19.2419">My Machine</text><rect fill="#FFFFFF" height="40" rx="12.5" ry="12.5" style="stroke:#708090;stroke-width:1.5;" width="50" x="72.09" y="111.5158"/><text fill="#000000" font-family="monospace" font-size="14" lengthAdjust="spacing" textLength="32" x="81.09" y="136.3625">idle</text><g id="loading"><rect fill="#FFFFFF" height="50.2656" rx="12.5" ry="12.5" style="stroke:#708090;stroke-width:1.5;" width="104" x="45.09" y="243.5158"/><line style="stroke:#708090;stroke-width:1.5;" x1="45.09" x2="149.09" y1="269.8127" y2="269.8127"/><text fill="#000000" font-family="monospace" font-size="14" lengthAdjust="spacing" textLength="56" x="69.09" y="261.511">loading</text><text fill="#000000" font-family="monospace" font-size="12" lengthAdjust="spacing" textLength="84" x="50.09" y="285.9514">└ P:saveData</text></g><ellipse cx="97.09" cy="40.5158" fill="#000000" rx="10" ry="10" style="stroke:none;stroke-width:1.0;"/><!--MD5=[583e8850357656d6f71ed436b986edf1]
link *start to idle--><path d="M97.09,50.7058 C97.09,63.6958 97.09,87.8958 97.09,106.2458 " fill="none" id="*start-to-idle" style="stroke:#708090;stroke-width:2.0;"/><polygon fill="#708090" points="97.09,111.2558,101.09,102.2558,97.09,106.2558,93.09,102.2558,97.09,111.2558" style="stroke:#708090;stroke-width:2.0;"/><!--MD5=[069abb7da33eb40b89293e24b2f19122]
link idle to loading--><path d="M71.9,139.6058 C52.02,146.6858 25.61,159.7058 13.09,181.5158 C6,193.8458 6.27,201.0358 13.09,213.5158 C19.47,225.2058 29.58,234.7358 40.61,242.3558 " fill="none" id="idle-to-loading" style="stroke:#708090;stroke-width:2.0;"/><polygon fill="#708090" points="45.05,245.2958,39.7474,236.9963,40.8788,242.5388,35.3362,243.6702,45.05,245.2958" style="stroke:#708090;stroke-width:2.0;"/><text fill="#000000" font-family="monospace" font-size="13" lengthAdjust="spacing" textLength="40" x="14.09" y="194.5827">start</text><text fill="#000000" font-family="monospace" font-size="13" lengthAdjust="spacing" textLength="120" x="14.09" y="209.7156">[exit: cleanup]</text><!--MD5=[720ca03703c1c9ea2b5f73f5e3107bf0]
link loading to idle--><path d="M121.24,243.5058 C128.41,234.8058 135.35,224.4158 139.09,213.5158 C143.7,200.0658 144.02,194.8558 139.09,181.5158 C135.61,172.1158 129.44,163.3058 122.87,155.8158 " fill="none" id="loading-to-idle" style="stroke:#708090;stroke-width:2.0;"/><polygon fill="#708090" points="119.2,151.7958,122.3051,161.1424,122.5676,155.4917,128.2184,155.7542,119.2,151.7958" style="stroke:#708090;stroke-width:2.0;"/><text fill="#000000" font-family="monospace" font-size="13" lengthAdjust="spacing" textLength="64" x="143.09" y="202.0827">complete</text><!--MD5=[7a8e1974460b104830a1c4c4ec3fd758]
@startuml

title My Machine

state idle<<default>>
state loading<<default>>

loading: └ P:saveData

[*] - -> idle
idle - -> loading: start\n[exit: cleanup]
loading - -> idle: complete

hide empty description
skinparam backgroundColor white
skinparam shadowing false
skinparam note {
  BackgroundColor white
  BorderColor slategray
  FontName monospaced
}
skinparam ArrowFontName monospaced
skinparam state {
  FontName monospaced
  AttributeFontName monospaced
  BackgroundColor white
  BorderColor slategray
  ArrowColor slategray
  ArrowThickness 2
  MessageAlignment left
  BackgroundColor<<danger>> Implementation
  BorderColor<<danger>> indianred
  BackgroundColor<<info>> Application
  BorderColor<<info>> skyblue
  BackgroundColor<<warning>> Strategy
  BorderColor<<warning>> tan
  BackgroundColor<<success>> Technology
  BorderColor<<success>> mediumseagreen
  BackgroundColor<<primary>> Motivation
  BorderColor<<primary>> lightsteelblue
}
@enduml

PlantUML version 1.2021.12(Tue Oct 05 11:01:58 CDT 2021)
(GPL source distribution)
Java Runtime: OpenJDK Runtime Environment
JVM: OpenJDK 64-Bit Server VM
Default Encoding: UTF-8
Language: es
Country: ES
--></g></svg>