<?xml version="1.0" encoding="UTF-8" standalone="no"?><svg xmlns="http://www.w3.org/2000/svg" xmlns:xlink="http://www.w3.org/1999/xlink" contentScriptType="application/ecmascript" contentStyleType="text/css" height="457px" preserveAspectRatio="none" style="width:268px;height:457px;background:#FFFFFF;" version="1.1" viewBox="0 0 268 457" width="268px" zoomAndPan="magnify"><defs/><g><text fill="#000000" font-family="sans-serif" font-size="18" lengthAdjust="spacing" textLength="69" x="93" y="19.2419">Dog API</text><rect fill="#FFFFFF" height="40" rx="12.5" ry="12.5" style="stroke:#708090;stroke-width:1.5;" width="50" x="141" y="111.5158"/><text fill="#000000" font-family="monospace" font-size="14" lengthAdjust="spacing" textLength="32" x="150" y="136.3625">idle</text><g id="loading"><rect fill="#FFFFFF" height="106.1406" rx="12.5" ry="12.5" style="stroke:#708090;stroke-width:1.5;" width="118" x="38" y="228.5158"/><line style="stroke:#708090;stroke-width:1.5;" x1="38" x2="156" y1="254.8127" y2="254.8127"/><text fill="#000000" font-family="monospace" font-size="14" lengthAdjust="spacing" textLength="56" x="69" y="246.511">loading</text><text fill="#000000" font-family="monospace" font-size="12" lengthAdjust="spacing" textLength="98" x="43" y="270.9514">└┬ AP:fetchDog</text><text fill="#000000" font-family="monospace" font-size="12" lengthAdjust="spacing" textLength="70" x="50" y="284.9201">├┬ success</text><text fill="#000000" font-family="monospace" font-size="12" lengthAdjust="spacing" textLength="91" x="50" y="298.8889">│└ T:resolved</text><text fill="#000000" font-family="monospace" font-size="12" lengthAdjust="spacing" textLength="70" x="50" y="312.8576">└┬ failure</text><text fill="#000000" font-family="monospace" font-size="12" lengthAdjust="spacing" textLength="84" x="57" y="326.8264">└ T:rejected</text></g><rect fill="#FFFFFF" height="40" rx="12.5" ry="12.5" style="stroke:#708090;stroke-width:1.5;" width="74" x="159" y="411.5158"/><text fill="#000000" font-family="monospace" font-size="14" lengthAdjust="spacing" textLength="64" x="164" y="436.3625">resolved</text><rect fill="#FFFFFF" height="40" rx="12.5" ry="12.5" style="stroke:#708090;stroke-width:1.5;" width="74" x="7" y="411.5158"/><text fill="#000000" font-family="monospace" font-size="14" lengthAdjust="spacing" textLength="64" x="12" y="436.3625">rejected</text><ellipse cx="166" cy="40.5158" fill="#000000" rx="10" ry="10" style="stroke:none;stroke-width:1.0;"/><!--MD5=[583e8850357656d6f71ed436b986edf1]
link *start to idle--><path d="M166,50.7058 C166,63.6958 166,87.8958 166,106.2458 " fill="none" id="*start-to-idle" style="stroke:#708090;stroke-width:2.0;"/><polygon fill="#708090" points="166,111.2558,170,102.2558,166,106.2558,162,102.2558,166,111.2558" style="stroke:#708090;stroke-width:2.0;"/><!--MD5=[069abb7da33eb40b89293e24b2f19122]
link idle to loading--><path d="M140.92,139.3858 C120.77,146.3758 93.78,159.3958 81,181.5158 C73.79,194.0058 72.91,208.7758 75.04,223.0458 " fill="none" id="idle-to-loading" style="stroke:#708090;stroke-width:2.0;"/><polygon fill="#708090" points="75.95,228.2658,78.3441,218.7124,75.0909,223.3402,70.4631,220.087,75.95,228.2658" style="stroke:#708090;stroke-width:2.0;"/><text fill="#000000" font-family="monospace" font-size="13" lengthAdjust="spacing" textLength="40" x="82" y="194.5827">fetch</text><!--MD5=[720ca03703c1c9ea2b5f73f5e3107bf0]
link loading to idle--><path d="M121.27,228.4558 C132.73,203.8658 145.86,175.7158 154.91,156.3058 " fill="none" id="loading-to-idle" style="stroke:#708090;stroke-width:2.0;"/><polygon fill="#708090" points="157.12,151.5658,149.6882,158.0287,155.0048,156.0964,156.9371,161.413,157.12,151.5658" style="stroke:#708090;stroke-width:2.0;"/><text fill="#000000" font-family="monospace" font-size="13" lengthAdjust="spacing" textLength="48" x="143" y="194.5827">cancel</text><!--MD5=[bc220758805248889cb6ffefcfdef91e]
link loading to resolved--><path d="M119.48,334.6758 C127.23,350.3458 136.61,367.1658 147,381.5158 C153.67,390.7258 162.09,399.8158 170.07,407.6158 " fill="none" id="loading-to-resolved" style="stroke:#708090;stroke-width:2.0;"/><polygon fill="#708090" points="173.94,411.3458,170.2379,402.2192,170.3408,407.8752,164.6849,407.978,173.94,411.3458" style="stroke:#708090;stroke-width:2.0;"/><text fill="#000000" font-family="monospace" font-size="13" lengthAdjust="spacing" textLength="64" x="148" y="377.5827">resolved</text><!--MD5=[99a4ee6debe6635254b69d2bbb8daf7c]
link loading to rejected--><path d="M54.7,334.8258 C49.07,344.2258 44.15,354.3058 41,364.5158 C36.88,377.8458 37.35,393.4058 38.98,406.0658 " fill="none" id="loading-to-rejected" style="stroke:#708090;stroke-width:2.0;"/><polygon fill="#708090" points="39.74,411.3058,42.4155,401.8274,39.0269,406.357,34.4973,402.9683,39.74,411.3058" style="stroke:#708090;stroke-width:2.0;"/><text fill="#000000" font-family="monospace" font-size="13" lengthAdjust="spacing" textLength="64" x="42" y="377.5827">rejected</text><!--MD5=[c0f96fd8d23bddfa57eca681b0fe4c36]
link resolved to idle--><path d="M206.48,411.0858 C210.64,402.3158 214.92,391.6658 217,381.5158 C234.94,294.1258 230.56,265.3258 200,181.5158 C196.71,172.4858 191.33,163.5658 185.82,155.8558 " fill="none" id="resolved-to-idle" style="stroke:#708090;stroke-width:2.0;stroke-dasharray:7.0,7.0;"/><polygon fill="#708090" points="182.76,151.7058,184.8995,161.3195,185.7348,155.7246,191.3296,156.5599,182.76,151.7058" style="stroke:#708090;stroke-width:2.0;"/><text fill="#000000" font-family="monospace" font-size="13" lengthAdjust="spacing" textLength="32" x="228" y="286.0827">idle</text><!--MD5=[1097d54f871bfb9fe493a88d91a11cf9]
@startuml

title Dog API

state idle<<default>>
state loading<<default>>
state resolved<<default>>
state rejected<<default>>

loading: └┬ AP:fetchDog\n ├┬ success\n │└ T:resolved\n └┬ failure\n  └ T:rejected

[*] - -> idle
idle -[#slategray]-> loading: fetch
loading -[#slategray]-> resolved: resolved
loading -[#slategray]-> rejected: rejected
loading -[#slategray]-> idle: cancel
resolved -[#slategray,dashed]-> idle: idle

hide empty description
skinparam backgroundColor white
skinparam shadowing false
skinparam note {
  BackgroundColor white
  BorderColor slategray
  FontName monospaced
}
skinparam ArrowFontName monospaced
skinparam state {
  FontName monospaced
  AttributeFontName monospaced
  BackgroundColor white
  BorderColor slategray
  ArrowColor slategray
  ArrowThickness 2
  MessageAlignment left
  BackgroundColor<<danger>> Implementation
  BorderColor<<danger>> indianred
  BackgroundColor<<info>> Application
  BorderColor<<info>> skyblue
  BackgroundColor<<warning>> Strategy
  BorderColor<<warning>> tan
  BackgroundColor<<success>> Technology
  BorderColor<<success>> mediumseagreen
  BackgroundColor<<primary>> Motivation
  BorderColor<<primary>> lightsteelblue
}
@enduml

PlantUML version 1.2021.12(Tue Oct 05 11:01:58 CDT 2021)
(GPL source distribution)
Java Runtime: OpenJDK Runtime Environment
JVM: OpenJDK 64-Bit Server VM
Default Encoding: UTF-8
Language: es
Country: ES
--></g></svg>