<?xml version="1.0" encoding="UTF-8" standalone="no"?><svg xmlns="http://www.w3.org/2000/svg" xmlns:xlink="http://www.w3.org/1999/xlink" contentScriptType="application/ecmascript" contentStyleType="text/css" height="612px" preserveAspectRatio="none" style="width:254px;height:612px;background:#FFFFFF;" version="1.1" viewBox="0 0 254 612" width="254px" zoomAndPan="magnify"><defs/><g><text fill="#000000" font-family="sans-serif" font-size="18" lengthAdjust="spacing" textLength="78" x="81.75" y="19.2419">Stoplight</text><rect fill="#FFFFFF" height="40" rx="12.5" ry="12.5" style="stroke:#708090;stroke-width:1.5;" width="50" x="73.5" y="111.5158"/><text fill="#000000" font-family="monospace" font-size="14" lengthAdjust="spacing" textLength="40" x="78.5" y="136.3625">green</text><rect fill="#FFFFFF" height="40" rx="12.5" ry="12.5" style="stroke:#708090;stroke-width:1.5;" width="58" x="20.5" y="228.5158"/><text fill="#000000" font-family="monospace" font-size="14" lengthAdjust="spacing" textLength="48" x="25.5" y="253.3625">yellow</text><ellipse cx="98.5" cy="40.5158" fill="#000000" rx="10" ry="10" style="stroke:none;stroke-width:1.0;"/><rect fill="#FFFFFF" height="261.2656" rx="12.5" ry="12.5" style="stroke:#708090;stroke-width:1.5;" width="183.5" x="7" y="345.5158"/><rect fill="#FFFFFF" height="210" rx="12.5" ry="12.5" style="stroke:#FFFFFF;stroke-width:1.0;" width="177.5" x="10" y="393.7815"/><line style="stroke:#708090;stroke-width:1.5;" x1="7" x2="190.5" y1="390.7815" y2="390.7815"/><line style="stroke:#708090;stroke-width:1.5;" x1="7" x2="190.5" y1="371.8127" y2="371.8127"/><text fill="#000000" font-family="monospace" font-size="14" lengthAdjust="spacing" textLength="24" x="86.75" y="363.511">red</text><text fill="#000000" font-family="monospace" font-size="12" lengthAdjust="spacing" textLength="126" x="12" y="382.9514">└ T:stopwalk.start</text><path d="M18,401.7815 L18,426.9143 L103,426.9143 L103,411.7815 L93,401.7815 L18,401.7815 " fill="#FFFFFF" style="stroke:#708090;stroke-width:1.0;"/><path d="M93,401.7815 L93,411.7815 L103,411.7815 L93,401.7815 " fill="#FFFFFF" style="stroke:#708090;stroke-width:1.0;"/><text fill="#000000" font-family="monospace" font-size="13" lengthAdjust="spacing" textLength="64" x="24" y="418.8484">Stopwalk</text><rect fill="#FFFFFF" height="40" rx="12.5" ry="12.5" style="stroke:#708090;stroke-width:1.5;" width="50" x="106.5" y="463.7815"/><text fill="#000000" font-family="monospace" font-size="14" lengthAdjust="spacing" textLength="32" x="115.5" y="488.6282">wait</text><rect fill="#FFFFFF" height="40" rx="12.5" ry="12.5" style="stroke:#708090;stroke-width:1.5;" width="50" x="106.5" y="556.7815"/><text fill="#000000" font-family="monospace" font-size="14" lengthAdjust="spacing" textLength="32" x="115.5" y="581.6282">walk</text><ellipse cx="131.5" cy="414.2815" fill="#000000" rx="10" ry="10" style="stroke:none;stroke-width:1.0;"/><!--MD5=[1a23eab611d0b900d4287ba31b899936]
link *start*red to RedStopwalkWait--><path d="M131.5,424.3815 C131.5,433.0615 131.5,446.5115 131.5,458.3215 " fill="none" id="*start*red-to-RedStopwalkWait" style="stroke:#708090;stroke-width:2.0;"/><polygon fill="#708090" points="131.5,463.6115,135.5,454.6115,131.5,458.6115,127.5,454.6115,131.5,463.6115" style="stroke:#708090;stroke-width:2.0;"/><!--MD5=[b334c0a958504a44e010f7267c32eadc]
link RedStopwalkWait to RedStopwalkWalk--><path d="M111.26,503.8715 C106.87,509.2015 102.85,515.3215 100.5,521.7815 C96.66,532.3515 101.06,543.2515 107.64,552.4715 " fill="none" id="RedStopwalkWait-to-RedStopwalkWalk" style="stroke:#708090;stroke-width:2.0;"/><polygon fill="#708090" points="110.8,556.5715,108.5014,546.9946,107.759,552.6025,102.1511,551.8601,110.8,556.5715" style="stroke:#708090;stroke-width:2.0;"/><text fill="#000000" font-family="monospace" font-size="13" lengthAdjust="spacing" textLength="40" x="101.5" y="534.8484">start</text><!--MD5=[62917db50c9a0ad4be771bf94a6efc45]
link RedStopwalkWalk to RedStopwalkWait--><path d="M138.4,556.4315 C140.09,550.8115 141.65,544.6215 142.5,538.7815 C143.59,531.3015 143.59,529.2615 142.5,521.7815 C141.89,517.5915 140.91,513.2115 139.78,508.9915 " fill="none" id="RedStopwalkWalk-to-RedStopwalkWait" style="stroke:#708090;stroke-width:2.0;"/><polygon fill="#708090" points="138.4,504.1315,137.0187,513.883,139.7698,508.9402,144.7127,511.6913,138.4,504.1315" style="stroke:#708090;stroke-width:2.0;"/><text fill="#000000" font-family="monospace" font-size="13" lengthAdjust="spacing" textLength="32" x="143.5" y="534.8484">stop</text><!--MD5=[397c3c162c5ddd0df8d14a2dad30eea6]
link *start to green--><path d="M98.5,50.7058 C98.5,63.6958 98.5,87.8958 98.5,106.2458 " fill="none" id="*start-to-green" style="stroke:#708090;stroke-width:2.0;"/><polygon fill="#708090" points="98.5,111.2558,102.5,102.2558,98.5,106.2558,94.5,102.2558,98.5,111.2558" style="stroke:#708090;stroke-width:2.0;"/><!--MD5=[60c397a31d3ce1e4617a22248cdb91c6]
link green to yellow--><path d="M90.3,151.7658 C81.89,171.4958 68.79,202.2358 59.71,223.5458 " fill="none" id="green-to-yellow" style="stroke:#708090;stroke-width:2.0;"/><polygon fill="#708090" points="57.73,228.2058,64.9342,221.4903,59.6875,223.605,57.5728,218.3582,57.73,228.2058" style="stroke:#708090;stroke-width:2.0;"/><text fill="#000000" font-family="monospace" font-size="13" lengthAdjust="spacing" textLength="32" x="78.5" y="194.5827">next</text><!--MD5=[a0b3bed8ff2e82c3931a1a345a88ba4b]
link yellow to red--><path d="M53.68,268.7458 C57.36,285.7058 63.1,312.0758 69.24,340.3658 " fill="none" id="yellow-to-red" style="stroke:#708090;stroke-width:2.0;"/><polygon fill="#708090" points="70.31,345.2958,72.3162,335.6535,69.2526,340.4089,64.4971,337.3453,70.31,345.2958" style="stroke:#708090;stroke-width:2.0;"/><text fill="#000000" font-family="monospace" font-size="13" lengthAdjust="spacing" textLength="32" x="64.5" y="311.5827">next</text><!--MD5=[a5e0655705b84d40306bb9a9e3b7bcfd]
link red to green--><path d="M110.39,345.3658 C114.09,299.0758 117.68,246.5058 119.5,198.5158 C119.79,190.9658 121.02,188.9158 119.5,181.5158 C117.77,173.1058 114.54,164.3558 111.12,156.6258 " fill="none" id="red-to-green" style="stroke:#708090;stroke-width:2.0;stroke-dasharray:7.0,7.0;"/><polygon fill="#708090" points="108.98,151.9458,109.1,161.794,111.0662,156.4898,116.3704,158.456,108.98,151.9458" style="stroke:#708090;stroke-width:2.0;"/><text fill="#000000" font-family="monospace" font-size="13" lengthAdjust="spacing" textLength="40" x="118.5" y="245.5827">green</text><text fill="#000000" font-family="monospace" font-size="13" lengthAdjust="spacing" textLength="128" x="118.5" y="260.7156">└ G:canGoToGreen</text><!--MD5=[3b95126384c6a8fc4cd69a1f046bd83e]
@startuml

title Stoplight

state green<<default>>
state yellow<<default>>
state red<<default>>

state red {
  note "Stopwalk" as NRedStopwalk

  state "wait" as RedStopwalkWait<<default>>
  state "walk" as RedStopwalkWalk<<default>>

  [*] - -> RedStopwalkWait
  RedStopwalkWait -[#slategray]-> RedStopwalkWalk: start
  RedStopwalkWalk -[#slategray]-> RedStopwalkWait: stop
}

red: └ T:stopwalk.start

[*] - -> green
green -[#slategray]-> yellow: next
yellow -[#slategray]-> red: next
red -[#slategray,dashed]-> green: green\n└ G:canGoToGreen

hide empty description
skinparam backgroundColor white
skinparam shadowing false
skinparam note {
  BackgroundColor white
  BorderColor slategray
  FontName monospaced
}
skinparam ArrowFontName monospaced
skinparam state {
  FontName monospaced
  AttributeFontName monospaced
  BackgroundColor white
  BorderColor slategray
  ArrowColor slategray
  ArrowThickness 2
  MessageAlignment left
  BackgroundColor<<danger>> Implementation
  BorderColor<<danger>> indianred
  BackgroundColor<<info>> Application
  BorderColor<<info>> skyblue
  BackgroundColor<<warning>> Strategy
  BorderColor<<warning>> tan
  BackgroundColor<<success>> Technology
  BorderColor<<success>> mediumseagreen
  BackgroundColor<<primary>> Motivation
  BorderColor<<primary>> lightsteelblue
}
@enduml

PlantUML version 1.2021.12(Tue Oct 05 11:01:58 CDT 2021)
(GPL source distribution)
Java Runtime: OpenJDK Runtime Environment
JVM: OpenJDK 64-Bit Server VM
Default Encoding: UTF-8
Language: es
Country: ES
--></g></svg>