<?xml version="1.0" encoding="UTF-8" standalone="no"?><svg xmlns="http://www.w3.org/2000/svg" xmlns:xlink="http://www.w3.org/1999/xlink" contentScriptType="application/ecmascript" contentStyleType="text/css" height="391px" preserveAspectRatio="none" style="width:155px;height:391px;background:#FFFFFF;" version="1.1" viewBox="0 0 155 391" width="155px" zoomAndPan="magnify"><defs/><g><text fill="#000000" font-family="sans-serif" font-size="18" lengthAdjust="spacing" textLength="78" x="32" y="19.2419">Stoplight</text><rect fill="#FFFFFF" height="40" rx="12.5" ry="12.5" style="stroke:#708090;stroke-width:1.5;" width="50" x="60" y="111.5158"/><text fill="#000000" font-family="monospace" font-size="14" lengthAdjust="spacing" textLength="40" x="65" y="136.3625">green</text><rect fill="#FFFFFF" height="40" rx="12.5" ry="12.5" style="stroke:#708090;stroke-width:1.5;" width="58" x="7" y="228.5158"/><text fill="#000000" font-family="monospace" font-size="14" lengthAdjust="spacing" textLength="48" x="12" y="253.3625">yellow</text><rect fill="#FFFFFF" height="40" rx="12.5" ry="12.5" style="stroke:#708090;stroke-width:1.5;" width="50" x="60" y="345.5158"/><text fill="#000000" font-family="monospace" font-size="14" lengthAdjust="spacing" textLength="24" x="73" y="370.3625">red</text><ellipse cx="85" cy="40.5158" fill="#000000" rx="10" ry="10" style="stroke:none;stroke-width:1.0;"/><!--MD5=[397c3c162c5ddd0df8d14a2dad30eea6]
link *start to green--><path d="M85,50.7058 C85,63.6958 85,87.8958 85,106.2458 " fill="none" id="*start-to-green" style="stroke:#708090;stroke-width:2.0;"/><polygon fill="#708090" points="85,111.2558,89,102.2558,85,106.2558,81,102.2558,85,111.2558" style="stroke:#708090;stroke-width:2.0;"/><!--MD5=[60c397a31d3ce1e4617a22248cdb91c6]
link green to yellow--><path d="M76.8,151.7658 C68.39,171.4958 55.29,202.2358 46.21,223.5458 " fill="none" id="green-to-yellow" style="stroke:#708090;stroke-width:2.0;"/><polygon fill="#708090" points="44.23,228.2058,51.4342,221.4903,46.1875,223.605,44.0728,218.3582,44.23,228.2058" style="stroke:#708090;stroke-width:2.0;"/><text fill="#000000" font-family="monospace" font-size="13" lengthAdjust="spacing" textLength="32" x="65" y="194.5827">next</text><!--MD5=[a0b3bed8ff2e82c3931a1a345a88ba4b]
link yellow to red--><path d="M44.2,268.7658 C52.61,288.4958 65.71,319.2358 74.79,340.5458 " fill="none" id="yellow-to-red" style="stroke:#708090;stroke-width:2.0;"/><polygon fill="#708090" points="76.77,345.2058,76.9272,335.3582,74.8125,340.605,69.5658,338.4903,76.77,345.2058" style="stroke:#708090;stroke-width:2.0;"/><text fill="#000000" font-family="monospace" font-size="13" lengthAdjust="spacing" textLength="32" x="65" y="311.5827">next</text><!--MD5=[a5e0655705b84d40306bb9a9e3b7bcfd]
link red to green--><path d="M95.48,345.0858 C99.64,336.3158 103.92,325.6658 106,315.5158 C117.97,257.1758 117.97,239.8558 106,181.5158 C104.27,173.1058 101.04,164.3558 97.62,156.6258 " fill="none" id="red-to-green" style="stroke:#708090;stroke-width:2.0;"/><polygon fill="#708090" points="95.48,151.9458,95.6,161.794,97.5662,156.4898,102.8704,158.456,95.48,151.9458" style="stroke:#708090;stroke-width:2.0;"/><text fill="#000000" font-family="monospace" font-size="13" lengthAdjust="spacing" textLength="32" x="115" y="253.0827">next</text><!--MD5=[19c3d483d33f657e6552919c73d669cc]
@startuml

title Stoplight

state green<<default>>
state yellow<<default>>
state red<<default>>

[*] - -> green
green -[#slategray]-> yellow: next
yellow -[#slategray]-> red: next
red -[#slategray]-> green: next

hide empty description
skinparam backgroundColor white
skinparam shadowing false
skinparam note {
  BackgroundColor white
  BorderColor slategray
  FontName monospaced
}
skinparam ArrowFontName monospaced
skinparam state {
  FontName monospaced
  AttributeFontName monospaced
  BackgroundColor white
  BorderColor slategray
  ArrowColor slategray
  ArrowThickness 2
  MessageAlignment left
  BackgroundColor<<danger>> Implementation
  BorderColor<<danger>> indianred
  BackgroundColor<<info>> Application
  BorderColor<<info>> skyblue
  BackgroundColor<<warning>> Strategy
  BorderColor<<warning>> tan
  BackgroundColor<<success>> Technology
  BorderColor<<success>> mediumseagreen
  BackgroundColor<<primary>> Motivation
  BorderColor<<primary>> lightsteelblue
}
@enduml

PlantUML version 1.2021.12(Tue Oct 05 11:01:58 CDT 2021)
(GPL source distribution)
Java Runtime: OpenJDK Runtime Environment
JVM: OpenJDK 64-Bit Server VM
Default Encoding: UTF-8
Language: es
Country: ES
--></g></svg>