<?xml version="1.0" encoding="UTF-8" standalone="no"?><svg xmlns="http://www.w3.org/2000/svg" xmlns:xlink="http://www.w3.org/1999/xlink" contentScriptType="application/ecmascript" contentStyleType="text/css" height="714px" preserveAspectRatio="none" style="width:275px;height:714px;background:#FFFFFF;" version="1.1" viewBox="0 0 275 714" width="275px" zoomAndPan="magnify"><defs/><g><text fill="#000000" font-family="sans-serif" font-size="18" lengthAdjust="spacing" textLength="123" x="69.995" y="19.2419">Word Machine</text><rect fill="#FFFFFF" height="677.2969" rx="12.5" ry="12.5" style="stroke:#708090;stroke-width:1.5;" width="261.99" x="7" y="31.5158"/><rect fill="#FFFFFF" height="645" rx="12.5" ry="12.5" style="stroke:#FFFFFF;stroke-width:1.0;" width="255.99" x="10" y="60.8127"/><line style="stroke:#708090;stroke-width:1.5;" x1="7" x2="268.99" y1="57.8127" y2="57.8127"/><text fill="#000000" font-family="monospace" font-size="14" lengthAdjust="spacing" textLength="120" x="77.995" y="49.511">Parallel states</text><path d="M18,77.3127 L18,102.4455 L71,102.4455 L71,87.3127 L61,77.3127 L18,77.3127 " fill="#FFFFFF" style="stroke:#708090;stroke-width:1.0;"/><path d="M61,77.3127 L61,87.3127 L71,87.3127 L61,77.3127 " fill="#FFFFFF" style="stroke:#708090;stroke-width:1.0;"/><text fill="#000000" font-family="monospace" font-size="13" lengthAdjust="spacing" textLength="32" x="24" y="94.3796">Bold</text><rect fill="#FFFFFF" height="40" rx="12.5" ry="12.5" style="stroke:#708090;stroke-width:1.5;" width="50" x="89.5" y="69.8127"/><text fill="#000000" font-family="monospace" font-size="14" lengthAdjust="spacing" textLength="16" x="106.5" y="94.6594">on</text><rect fill="#FFFFFF" height="40" rx="12.5" ry="12.5" style="stroke:#708090;stroke-width:1.5;" width="50" x="123.5" y="162.8127"/><text fill="#000000" font-family="monospace" font-size="14" lengthAdjust="spacing" textLength="24" x="136.5" y="187.6594">off</text><ellipse cx="181.5" cy="89.8127" fill="#000000" rx="10" ry="10" style="stroke:none;stroke-width:1.0;"/><!--MD5=[8116cf155b0f317aaf929a049c4dc091]
link *start*WordMachineParallelStates to WordMachineBoldOff--><path d="M179.81,99.7927 C177.61,110.6627 173.36,129.4227 167.5,144.8127 C165.84,149.1727 163.8,153.6927 161.69,158.0027 " fill="none" id="*start*WordMachineParallelStates-to-WordMachineBoldOff" style="stroke:#708090;stroke-width:2.0;"/><polygon fill="#708090" points="159.38,162.5927,166.9906,156.3414,161.6218,158.1234,159.8398,152.7546,159.38,162.5927" style="stroke:#708090;stroke-width:2.0;"/><!--MD5=[e651da0776c943798cdfcd9d46a65288]
link WordMachineBoldOn to WordMachineBoldOff--><path d="M103.17,109.9727 C98.42,120.6127 95.11,133.8627 100.5,144.8127 C104.65,153.2527 111.76,160.3127 119.26,165.9327 " fill="none" id="WordMachineBoldOn-to-WordMachineBoldOff" style="stroke:#708090;stroke-width:2.0;"/><polygon fill="#708090" points="123.44,168.9027,118.4301,160.4233,119.3675,166.0019,113.7888,166.9393,123.44,168.9027" style="stroke:#708090;stroke-width:2.0;"/><text fill="#000000" font-family="monospace" font-size="13" lengthAdjust="spacing" textLength="24" x="101.5" y="140.8796">off</text><!--MD5=[cd9f96340b52948d2b7d5e683557da9c]
link WordMachineBoldOff to WordMachineBoldOn--><path d="M141.3,162.5427 C136.12,148.6727 129.09,129.8727 123.53,114.9927 " fill="none" id="WordMachineBoldOff-to-WordMachineBoldOn" style="stroke:#708090;stroke-width:2.0;"/><polygon fill="#708090" points="121.71,110.1127,121.1248,119.9442,123.4656,114.7944,128.6154,117.1352,121.71,110.1127" style="stroke:#708090;stroke-width:2.0;"/><text fill="#000000" font-family="monospace" font-size="13" lengthAdjust="spacing" textLength="16" x="135.5" y="140.8796">on</text><line style="stroke:#708090;stroke-width:1.5;stroke-dasharray:8.0,10.0;" x1="12" x2="261.99" y1="207.8127" y2="207.8127"/><path d="M18,222.3127 L18,247.4455 L111,247.4455 L111,232.3127 L101,222.3127 L18,222.3127 " fill="#FFFFFF" style="stroke:#708090;stroke-width:1.0;"/><path d="M101,222.3127 L101,232.3127 L111,232.3127 L101,222.3127 " fill="#FFFFFF" style="stroke:#708090;stroke-width:1.0;"/><text fill="#000000" font-family="monospace" font-size="13" lengthAdjust="spacing" textLength="72" x="24" y="239.3796">Underline</text><rect fill="#FFFFFF" height="40" rx="12.5" ry="12.5" style="stroke:#708090;stroke-width:1.5;" width="50" x="129.5" y="214.8127"/><text fill="#000000" font-family="monospace" font-size="14" lengthAdjust="spacing" textLength="16" x="146.5" y="239.6594">on</text><rect fill="#FFFFFF" height="40" rx="12.5" ry="12.5" style="stroke:#708090;stroke-width:1.5;" width="50" x="163.5" y="307.8127"/><text fill="#000000" font-family="monospace" font-size="14" lengthAdjust="spacing" textLength="24" x="176.5" y="332.6594">off</text><ellipse cx="221.5" cy="234.8127" fill="#000000" rx="10" ry="10" style="stroke:none;stroke-width:1.0;"/><!--MD5=[426eca9c6e6008a2e571d8ff2d03765b]
link *start*CONC12 to WordMachineUnderlineOff--><path d="M219.81,244.7927 C217.61,255.6627 213.36,274.4227 207.5,289.8127 C205.84,294.1727 203.8,298.6927 201.69,303.0027 " fill="none" id="*start*CONC12-to-WordMachineUnderlineOff" style="stroke:#708090;stroke-width:2.0;"/><polygon fill="#708090" points="199.38,307.5927,206.9906,301.3414,201.6218,303.1234,199.8398,297.7546,199.38,307.5927" style="stroke:#708090;stroke-width:2.0;"/><!--MD5=[deeef3cd9eda4632525ed4e4e8909ffe]
link WordMachineUnderlineOn to WordMachineUnderlineOff--><path d="M143.17,254.9727 C138.42,265.6127 135.11,278.8627 140.5,289.8127 C144.65,298.2527 151.76,305.3127 159.26,310.9327 " fill="none" id="WordMachineUnderlineOn-to-WordMachineUnderlineOff" style="stroke:#708090;stroke-width:2.0;"/><polygon fill="#708090" points="163.44,313.9027,158.4301,305.4233,159.3675,311.0019,153.7888,311.9393,163.44,313.9027" style="stroke:#708090;stroke-width:2.0;"/><text fill="#000000" font-family="monospace" font-size="13" lengthAdjust="spacing" textLength="24" x="141.5" y="285.8796">off</text><!--MD5=[c281b977eb27f0131a29b5b342c9517a]
link WordMachineUnderlineOff to WordMachineUnderlineOn--><path d="M181.3,307.5427 C176.12,293.6727 169.09,274.8727 163.53,259.9927 " fill="none" id="WordMachineUnderlineOff-to-WordMachineUnderlineOn" style="stroke:#708090;stroke-width:2.0;"/><polygon fill="#708090" points="161.71,255.1127,161.1248,264.9442,163.4656,259.7944,168.6154,262.1352,161.71,255.1127" style="stroke:#708090;stroke-width:2.0;"/><text fill="#000000" font-family="monospace" font-size="13" lengthAdjust="spacing" textLength="16" x="175.5" y="285.8796">on</text><line style="stroke:#708090;stroke-width:1.5;stroke-dasharray:8.0,10.0;" x1="12" x2="261.99" y1="352.8127" y2="352.8127"/><path d="M18,367.3127 L18,392.4455 L95,392.4455 L95,377.3127 L85,367.3127 L18,367.3127 " fill="#FFFFFF" style="stroke:#708090;stroke-width:1.0;"/><path d="M85,367.3127 L85,377.3127 L95,377.3127 L85,367.3127 " fill="#FFFFFF" style="stroke:#708090;stroke-width:1.0;"/><text fill="#000000" font-family="monospace" font-size="13" lengthAdjust="spacing" textLength="56" x="24" y="384.3796">Italics</text><rect fill="#FFFFFF" height="40" rx="12.5" ry="12.5" style="stroke:#708090;stroke-width:1.5;" width="50" x="113.5" y="359.8127"/><text fill="#000000" font-family="monospace" font-size="14" lengthAdjust="spacing" textLength="16" x="130.5" y="384.6594">on</text><rect fill="#FFFFFF" height="40" rx="12.5" ry="12.5" style="stroke:#708090;stroke-width:1.5;" width="50" x="147.5" y="452.8127"/><text fill="#000000" font-family="monospace" font-size="14" lengthAdjust="spacing" textLength="24" x="160.5" y="477.6594">off</text><ellipse cx="205.5" cy="379.8127" fill="#000000" rx="10" ry="10" style="stroke:none;stroke-width:1.0;"/><!--MD5=[85f97eabbb976c34460dcb6a02495339]
link *start*CONC21 to WordMachineItalicsOff--><path d="M203.81,389.7927 C201.61,400.6627 197.36,419.4227 191.5,434.8127 C189.84,439.1727 187.8,443.6927 185.69,448.0027 " fill="none" id="*start*CONC21-to-WordMachineItalicsOff" style="stroke:#708090;stroke-width:2.0;"/><polygon fill="#708090" points="183.38,452.5927,190.9906,446.3414,185.6218,448.1234,183.8398,442.7546,183.38,452.5927" style="stroke:#708090;stroke-width:2.0;"/><!--MD5=[85eaefd4bc237a12030ca1109def925e]
link WordMachineItalicsOn to WordMachineItalicsOff--><path d="M127.17,399.9727 C122.42,410.6127 119.11,423.8627 124.5,434.8127 C128.65,443.2527 135.76,450.3127 143.26,455.9327 " fill="none" id="WordMachineItalicsOn-to-WordMachineItalicsOff" style="stroke:#708090;stroke-width:2.0;"/><polygon fill="#708090" points="147.44,458.9027,142.4301,450.4233,143.3675,456.0019,137.7888,456.9393,147.44,458.9027" style="stroke:#708090;stroke-width:2.0;"/><text fill="#000000" font-family="monospace" font-size="13" lengthAdjust="spacing" textLength="24" x="125.5" y="430.8796">off</text><!--MD5=[ef4ba1c2102b147ecdeaa28803698a8c]
link WordMachineItalicsOff to WordMachineItalicsOn--><path d="M165.3,452.5427 C160.12,438.6727 153.09,419.8727 147.53,404.9927 " fill="none" id="WordMachineItalicsOff-to-WordMachineItalicsOn" style="stroke:#708090;stroke-width:2.0;"/><polygon fill="#708090" points="145.71,400.1127,145.1248,409.9442,147.4656,404.7944,152.6154,407.1352,145.71,400.1127" style="stroke:#708090;stroke-width:2.0;"/><text fill="#000000" font-family="monospace" font-size="13" lengthAdjust="spacing" textLength="16" x="159.5" y="430.8796">on</text><line style="stroke:#708090;stroke-width:1.5;stroke-dasharray:8.0,10.0;" x1="12" x2="261.99" y1="497.8127" y2="497.8127"/><path d="M53.49,503.8127 L53.49,528.9455 L106.49,528.9455 L106.49,513.8127 L96.49,503.8127 L53.49,503.8127 " fill="#FFFFFF" style="stroke:#708090;stroke-width:1.0;"/><path d="M96.49,503.8127 L96.49,513.8127 L106.49,513.8127 L96.49,503.8127 " fill="#FFFFFF" style="stroke:#708090;stroke-width:1.0;"/><text fill="#000000" font-family="monospace" font-size="13" lengthAdjust="spacing" textLength="32" x="59.49" y="520.8796">List</text><rect fill="#FFFFFF" height="40" rx="12.5" ry="12.5" style="stroke:#708090;stroke-width:1.5;" width="50" x="109.99" y="565.8127"/><text fill="#000000" font-family="monospace" font-size="14" lengthAdjust="spacing" textLength="32" x="118.99" y="590.6594">none</text><rect fill="#FFFFFF" height="40" rx="12.5" ry="12.5" style="stroke:#708090;stroke-width:1.5;" width="66" x="46.99" y="658.8127"/><text fill="#000000" font-family="monospace" font-size="14" lengthAdjust="spacing" textLength="56" x="51.99" y="683.6594">bullets</text><rect fill="#FFFFFF" height="40" rx="12.5" ry="12.5" style="stroke:#708090;stroke-width:1.5;" width="66" x="157.99" y="658.8127"/><text fill="#000000" font-family="monospace" font-size="14" lengthAdjust="spacing" textLength="56" x="162.99" y="683.6594">numbers</text><ellipse cx="134.99" cy="516.3127" fill="#000000" rx="10" ry="10" style="stroke:none;stroke-width:1.0;"/><!--MD5=[21b8f9659a95934ce19cb012c0b1104c]
link *start*CONC30 to WordMachineListNone--><path d="M134.99,526.4127 C134.99,535.0927 134.99,548.5427 134.99,560.3527 " fill="none" id="*start*CONC30-to-WordMachineListNone" style="stroke:#708090;stroke-width:2.0;"/><polygon fill="#708090" points="134.99,565.6427,138.99,556.6427,134.99,560.6427,130.99,556.6427,134.99,565.6427" style="stroke:#708090;stroke-width:2.0;"/><!--MD5=[4a495898a4353ed7c30c8b347012b16f]
link WordMachineListNone to WordMachineListBullets--><path d="M109.55,587.5527 C83.95,589.8127 45.66,597.6827 26.99,623.8127 C18,636.4027 28.5,648.8427 42.47,658.6027 " fill="none" id="WordMachineListNone-to-WordMachineListBullets" style="stroke:#708090;stroke-width:2.0;"/><polygon fill="#708090" points="46.9,661.5427,41.6105,653.2348,42.7332,658.7791,37.1888,659.9018,46.9,661.5427" style="stroke:#708090;stroke-width:2.0;"/><text fill="#000000" font-family="monospace" font-size="13" lengthAdjust="spacing" textLength="56" x="27.99" y="636.8796">bullets</text><!--MD5=[cee2133f485bb52d5e1f544c9d3ea4b8]
link WordMachineListNone to WordMachineListNumbers--><path d="M144.93,605.8427 C150.55,616.3127 157.87,629.4527 164.99,640.8127 C167.74,645.2027 170.81,649.7927 173.83,654.1827 " fill="none" id="WordMachineListNone-to-WordMachineListNumbers" style="stroke:#708090;stroke-width:2.0;"/><polygon fill="#708090" points="176.84,658.4827,174.9761,648.8118,173.9813,654.3805,168.4126,653.3857,176.84,658.4827" style="stroke:#708090;stroke-width:2.0;"/><text fill="#000000" font-family="monospace" font-size="13" lengthAdjust="spacing" textLength="56" x="165.99" y="636.8796">numbers</text><!--MD5=[79c547c50c9a5108883f95477a233eec]
link WordMachineListBullets to WordMachineListNone--><path d="M89.03,658.6827 C94.21,648.1727 101.04,635.0327 107.99,623.8127 C110.76,619.3527 113.89,614.7327 117.02,610.3327 " fill="none" id="WordMachineListBullets-to-WordMachineListNone" style="stroke:#708090;stroke-width:2.0;"/><polygon fill="#708090" points="120.13,606.0127,111.6191,610.9691,117.2036,610.0669,118.1058,615.6513,120.13,606.0127" style="stroke:#708090;stroke-width:2.0;"/><text fill="#000000" font-family="monospace" font-size="13" lengthAdjust="spacing" textLength="32" x="108.99" y="636.8796">none</text><!--MD5=[9b3c3b6fed30f1e459823e38502f0a65]
link WordMachineListNumbers to WordMachineListNone--><path d="M213.48,658.7727 C223.08,648.3027 230.53,635.1627 222.99,623.8127 C210.23,604.5927 185.32,595.3427 165.26,590.8927 " fill="none" id="WordMachineListNumbers-to-WordMachineListNone" style="stroke:#708090;stroke-width:2.0;"/><polygon fill="#708090" points="160.27,589.8627,168.269,595.6086,165.1656,590.8791,169.8952,587.7756,160.27,589.8627" style="stroke:#708090;stroke-width:2.0;"/><text fill="#000000" font-family="monospace" font-size="13" lengthAdjust="spacing" textLength="32" x="226.99" y="636.8796">none</text><!--MD5=[9d7923b4e13459adb1cce48115e397bb]
@startuml

title Word Machine


state "Parallel states" as WordMachineParallelStates {
  note "Bold" as NWordMachineBold

  state "on" as WordMachineBoldOn<<default>>
  state "off" as WordMachineBoldOff<<default>>

  [*] - -> WordMachineBoldOff
  WordMachineBoldOn -[#slategray]-> WordMachineBoldOff: off
  WordMachineBoldOff -[#slategray]-> WordMachineBoldOn: on

  - -

  note "Underline" as NWordMachineUnderline

  state "on" as WordMachineUnderlineOn<<default>>
  state "off" as WordMachineUnderlineOff<<default>>

  [*] - -> WordMachineUnderlineOff
  WordMachineUnderlineOn -[#slategray]-> WordMachineUnderlineOff: off
  WordMachineUnderlineOff -[#slategray]-> WordMachineUnderlineOn: on

  - -

  note "Italics" as NWordMachineItalics

  state "on" as WordMachineItalicsOn<<default>>
  state "off" as WordMachineItalicsOff<<default>>

  [*] - -> WordMachineItalicsOff
  WordMachineItalicsOn -[#slategray]-> WordMachineItalicsOff: off
  WordMachineItalicsOff -[#slategray]-> WordMachineItalicsOn: on

  - -

  note "List" as NWordMachineList

  state "none" as WordMachineListNone<<default>>
  state "bullets" as WordMachineListBullets<<default>>
  state "numbers" as WordMachineListNumbers<<default>>

  [*] - -> WordMachineListNone
  WordMachineListNone -[#slategray]-> WordMachineListBullets: bullets
  WordMachineListNone -[#slategray]-> WordMachineListNumbers: numbers
  WordMachineListBullets -[#slategray]-> WordMachineListNone: none
  WordMachineListNumbers -[#slategray]-> WordMachineListNone: none
}

hide empty description
skinparam backgroundColor white
skinparam shadowing false
skinparam note {
  BackgroundColor white
  BorderColor slategray
  FontName monospaced
}
skinparam ArrowFontName monospaced
skinparam state {
  FontName monospaced
  AttributeFontName monospaced
  BackgroundColor white
  BorderColor slategray
  ArrowColor slategray
  ArrowThickness 2
  MessageAlignment left
  BackgroundColor<<danger>> Implementation
  BorderColor<<danger>> indianred
  BackgroundColor<<info>> Application
  BorderColor<<info>> skyblue
  BackgroundColor<<warning>> Strategy
  BorderColor<<warning>> tan
  BackgroundColor<<success>> Technology
  BorderColor<<success>> mediumseagreen
  BackgroundColor<<primary>> Motivation
  BorderColor<<primary>> lightsteelblue
}
@enduml

PlantUML version 1.2021.12(Tue Oct 05 11:01:58 CDT 2021)
(GPL source distribution)
Java Runtime: OpenJDK Runtime Environment
JVM: OpenJDK 64-Bit Server VM
Default Encoding: UTF-8
Language: es
Country: ES
--></g></svg>