<?xml version="1.0" encoding="UTF-8" standalone="no"?><svg xmlns="http://www.w3.org/2000/svg" xmlns:xlink="http://www.w3.org/1999/xlink" contentScriptType="application/ecmascript" contentStyleType="text/css" height="1080px" preserveAspectRatio="none" style="width:1172px;height:1080px;background:#FFFFFF;" version="1.1" viewBox="0 0 1172 1080" width="1172px" zoomAndPan="magnify"><defs/><g><text fill="#000000" font-family="sans-serif" font-size="18" lengthAdjust="spacing" textLength="36" x="561.5" y="16.708">Bird</text><rect fill="#FFFFFF" height="40" rx="12.5" ry="12.5" style="stroke:#708090;stroke-width:1.5;" width="50" x="581" y="107.9531"/><text fill="#000000" font-family="monospace" font-size="14" lengthAdjust="spacing" textLength="32" x="590" y="132.7998">land</text><rect fill="#FFFFFF" height="40" rx="12.5" ry="12.5" style="stroke:#708090;stroke-width:1.5;" width="58" x="649" y="642.9531"/><text fill="#000000" font-family="monospace" font-size="14" lengthAdjust="spacing" textLength="48" x="654" y="667.7998">flying</text><ellipse cx="606" cy="36.9531" fill="#000000" rx="10" ry="10" style="stroke:none;stroke-width:1.0;"/><rect fill="#FFFFFF" height="310.5" rx="12.5" ry="12.5" style="stroke:#708090;stroke-width:1.5;" width="764" x="7" y="224.9531"/><rect fill="#FFFFFF" height="245.2656" rx="12.5" ry="12.5" style="stroke:#FFFFFF;stroke-width:1.0;" width="758" x="10" y="287.1875"/><line style="stroke:#708090;stroke-width:1.5;" x1="7" x2="771" y1="284.1875" y2="284.1875"/><line style="stroke:#708090;stroke-width:1.5;" x1="7" x2="771" y1="251.25" y2="251.25"/><text fill="#000000" font-family="monospace" font-size="14" lengthAdjust="spacing" textLength="72" x="353" y="242.9482">takingoff</text><text fill="#000000" font-family="monospace" font-size="12" lengthAdjust="spacing" textLength="119" x="12" y="262.3887">├ T:LeftWing.open</text><text fill="#000000" font-family="monospace" font-size="12" lengthAdjust="spacing" textLength="126" x="12" y="276.3574">└ T:RightWing.open</text><path d="M18,295.1875 L18,320.3203 L111,320.3203 L111,305.1875 L101,295.1875 L18,295.1875 " fill="#FFFFFF" style="stroke:#708090;stroke-width:1.0;"/><path d="M101,295.1875 L101,305.1875 L111,305.1875 L101,295.1875 " fill="#FFFFFF" style="stroke:#708090;stroke-width:1.0;"/><text fill="#000000" font-family="monospace" font-size="13" lengthAdjust="spacing" textLength="72" x="24" y="312.2544">Left wing</text><g id="takingoff.TakingoffLeftWingClosed"><rect fill="#FFFFFF" height="50.2656" rx="12.5" ry="12.5" style="stroke:#708090;stroke-width:1.5;" width="202" x="38.5" y="357.1875"/><line style="stroke:#708090;stroke-width:1.5;" x1="38.5" x2="240.5" y1="383.4844" y2="383.4844"/><text fill="#000000" font-family="monospace" font-size="14" lengthAdjust="spacing" textLength="48" x="115.5" y="375.1826">closed</text><text fill="#000000" font-family="monospace" font-size="12" lengthAdjust="spacing" textLength="182" x="43.5" y="399.623">└ P:updateLeftWingToclosed</text></g><g id="takingoff.TakingoffLeftWingOpened"><rect fill="#FFFFFF" height="50.2656" rx="12.5" ry="12.5" style="stroke:#708090;stroke-width:1.5;" width="202" x="38.5" y="475.1875"/><line style="stroke:#708090;stroke-width:1.5;" x1="38.5" x2="240.5" y1="501.4844" y2="501.4844"/><text fill="#000000" font-family="monospace" font-size="14" lengthAdjust="spacing" textLength="48" x="115.5" y="493.1826">opened</text><text fill="#000000" font-family="monospace" font-size="12" lengthAdjust="spacing" textLength="182" x="43.5" y="517.623">└ P:updateLeftWingToopened</text></g><ellipse cx="139.5" cy="307.6875" fill="#000000" rx="10" ry="10" style="stroke:none;stroke-width:1.0;"/><!--MD5=[4fb60153ad347f03f5bddd3c5f8b422a]
link *start*takingoff to TakingoffLeftWingClosed--><path d="M139.5,317.8675 C139.5,326.4675 139.5,339.7975 139.5,352.0075 " fill="none" id="*start*takingoff-to-TakingoffLeftWingClosed" style="stroke:#708090;stroke-width:2.0;"/><polygon fill="#708090" points="139.5,357.1575,143.5,348.1575,139.5,352.1575,135.5,348.1575,139.5,357.1575" style="stroke:#708090;stroke-width:2.0;"/><!--MD5=[885743be54ac1f5fba5cdd9f22a64574]
link TakingoffLeftWingClosed to TakingoffLeftWingOpened--><path d="M65.81,407.3775 C59.01,412.2775 53,418.1475 48.5,425.1875 C40.83,437.1675 40.83,445.2075 48.5,457.1875 C52.09,462.7975 56.63,467.6575 61.77,471.8875 " fill="none" id="TakingoffLeftWingClosed-to-TakingoffLeftWingOpened" style="stroke:#708090;stroke-width:2.0;"/><polygon fill="#708090" points="65.81,474.9975,61.1182,466.338,61.8479,471.9476,56.2383,472.6773,65.81,474.9975" style="stroke:#708090;stroke-width:2.0;"/><text fill="#000000" font-family="monospace" font-size="13" lengthAdjust="spacing" textLength="32" x="49.5" y="438.2544">open</text><text fill="#000000" font-family="monospace" font-size="13" lengthAdjust="spacing" textLength="160" x="49.5" y="453.3872">└ G:isLeftWingClosed</text><!--MD5=[cd211ae35bab3d74d0c8633110c8cdc8]
link TakingoffLeftWingOpened to TakingoffLeftWingClosed--><path d="M194.52,475.0975 C200.89,470.0875 206.53,464.1575 210.5,457.1875 C217.55,444.8375 217.55,437.5375 210.5,425.1875 C207.4,419.7475 203.28,414.9375 198.59,410.7075 " fill="none" id="TakingoffLeftWingOpened-to-TakingoffLeftWingClosed" style="stroke:#708090;stroke-width:2.0;"/><polygon fill="#708090" points="194.52,407.2775,198.8409,416.1279,198.3494,410.4925,203.9848,410.0009,194.52,407.2775" style="stroke:#708090;stroke-width:2.0;"/><text fill="#000000" font-family="monospace" font-size="13" lengthAdjust="spacing" textLength="40" x="216.5" y="438.2544">close</text><text fill="#000000" font-family="monospace" font-size="13" lengthAdjust="spacing" textLength="160" x="216.5" y="453.3872">└ G:isLeftWingOpened</text><line style="stroke:#708090;stroke-width:1.5;stroke-dasharray:8.0,10.0;" x1="371.5" x2="371.5" y1="289.1875" y2="538.4531"/><path d="M377.5,295.1875 L377.5,320.3203 L478.5,320.3203 L478.5,305.1875 L468.5,295.1875 L377.5,295.1875 " fill="#FFFFFF" style="stroke:#708090;stroke-width:1.0;"/><path d="M468.5,295.1875 L468.5,305.1875 L478.5,305.1875 L468.5,295.1875 " fill="#FFFFFF" style="stroke:#708090;stroke-width:1.0;"/><text fill="#000000" font-family="monospace" font-size="13" lengthAdjust="spacing" textLength="80" x="383.5" y="312.2544">Right wing</text><g id="takingoff.CONC15.TakingoffRightWingClosed"><rect fill="#FFFFFF" height="50.2656" rx="12.5" ry="12.5" style="stroke:#708090;stroke-width:1.5;" width="209" x="402.5" y="357.1875"/><line style="stroke:#708090;stroke-width:1.5;" x1="402.5" x2="611.5" y1="383.4844" y2="383.4844"/><text fill="#000000" font-family="monospace" font-size="14" lengthAdjust="spacing" textLength="48" x="483" y="375.1826">closed</text><text fill="#000000" font-family="monospace" font-size="12" lengthAdjust="spacing" textLength="189" x="407.5" y="399.623">└ P:updateRightWingToclosed</text></g><g id="takingoff.CONC15.TakingoffRightWingOpened"><rect fill="#FFFFFF" height="50.2656" rx="12.5" ry="12.5" style="stroke:#708090;stroke-width:1.5;" width="209" x="402.5" y="475.1875"/><line style="stroke:#708090;stroke-width:1.5;" x1="402.5" x2="611.5" y1="501.4844" y2="501.4844"/><text fill="#000000" font-family="monospace" font-size="14" lengthAdjust="spacing" textLength="48" x="483" y="493.1826">opened</text><text fill="#000000" font-family="monospace" font-size="12" lengthAdjust="spacing" textLength="189" x="407.5" y="517.623">└ P:updateRightWingToopened</text></g><ellipse cx="507" cy="307.6875" fill="#000000" rx="10" ry="10" style="stroke:none;stroke-width:1.0;"/><!--MD5=[f78a36bfd5c8263db5a4ad6b5904454e]
link *start*CONC15 to TakingoffRightWingClosed--><path d="M507,317.8675 C507,326.4675 507,339.7975 507,352.0075 " fill="none" id="*start*CONC15-to-TakingoffRightWingClosed" style="stroke:#708090;stroke-width:2.0;"/><polygon fill="#708090" points="507,357.1575,511,348.1575,507,352.1575,503,348.1575,507,357.1575" style="stroke:#708090;stroke-width:2.0;"/><!--MD5=[0ed787536f243a3836bf17fd717b3d3d]
link TakingoffRightWingClosed to TakingoffRightWingOpened--><path d="M429.68,407.2575 C422.75,412.1775 416.63,418.0875 412,425.1875 C404.24,437.1075 404.24,445.2675 412,457.1875 C415.69,462.8475 420.33,467.7475 425.56,471.9975 " fill="none" id="TakingoffRightWingClosed-to-TakingoffRightWingOpened" style="stroke:#708090;stroke-width:2.0;"/><polygon fill="#708090" points="429.68,475.1175,424.9145,466.4984,425.692,472.1015,420.0889,472.8791,429.68,475.1175" style="stroke:#708090;stroke-width:2.0;"/><text fill="#000000" font-family="monospace" font-size="13" lengthAdjust="spacing" textLength="32" x="413" y="438.2544">open</text><text fill="#000000" font-family="monospace" font-size="13" lengthAdjust="spacing" textLength="168" x="413" y="453.3872">└ G:isRightWingClosed</text><!--MD5=[52693327fea9a28deec1acd95f11bf2c]
link TakingoffRightWingOpened to TakingoffRightWingClosed--><path d="M565.79,474.9875 C572.23,470.0275 577.92,464.1375 582,457.1875 C589.19,444.9175 589.19,437.4575 582,425.1875 C578.82,419.7575 574.65,414.9775 569.9,410.7775 " fill="none" id="TakingoffRightWingOpened-to-TakingoffRightWingClosed" style="stroke:#708090;stroke-width:2.0;"/><polygon fill="#708090" points="565.79,407.3875,570.182,416.2029,569.6451,410.5715,575.2764,410.0347,565.79,407.3875" style="stroke:#708090;stroke-width:2.0;"/><text fill="#000000" font-family="monospace" font-size="13" lengthAdjust="spacing" textLength="40" x="588" y="438.2544">close</text><text fill="#000000" font-family="monospace" font-size="13" lengthAdjust="spacing" textLength="168" x="588" y="453.3872">└ G:isRightWingOpened</text><rect fill="#FFFFFF" height="310.5" rx="12.5" ry="12.5" style="stroke:#708090;stroke-width:1.5;" width="764" x="401" y="759.9531"/><rect fill="#FFFFFF" height="245.2656" rx="12.5" ry="12.5" style="stroke:#FFFFFF;stroke-width:1.0;" width="758" x="404" y="822.1875"/><line style="stroke:#708090;stroke-width:1.5;" x1="401" x2="1165" y1="819.1875" y2="819.1875"/><line style="stroke:#708090;stroke-width:1.5;" x1="401" x2="1165" y1="786.25" y2="786.25"/><text fill="#000000" font-family="monospace" font-size="14" lengthAdjust="spacing" textLength="56" x="755" y="777.9482">landing</text><text fill="#000000" font-family="monospace" font-size="12" lengthAdjust="spacing" textLength="126" x="406" y="797.3887">├ T:LeftWing.close</text><text fill="#000000" font-family="monospace" font-size="12" lengthAdjust="spacing" textLength="133" x="406" y="811.3574">└ T:RightWing.close</text><path d="M412,830.1875 L412,855.3203 L505,855.3203 L505,840.1875 L495,830.1875 L412,830.1875 " fill="#FFFFFF" style="stroke:#708090;stroke-width:1.0;"/><path d="M495,830.1875 L495,840.1875 L505,840.1875 L495,830.1875 " fill="#FFFFFF" style="stroke:#708090;stroke-width:1.0;"/><text fill="#000000" font-family="monospace" font-size="13" lengthAdjust="spacing" textLength="72" x="418" y="847.2544">Left wing</text><g id="landing.LandingLeftWingClosed"><rect fill="#FFFFFF" height="50.2656" rx="12.5" ry="12.5" style="stroke:#708090;stroke-width:1.5;" width="202" x="432.5" y="892.1875"/><line style="stroke:#708090;stroke-width:1.5;" x1="432.5" x2="634.5" y1="918.4844" y2="918.4844"/><text fill="#000000" font-family="monospace" font-size="14" lengthAdjust="spacing" textLength="48" x="509.5" y="910.1826">closed</text><text fill="#000000" font-family="monospace" font-size="12" lengthAdjust="spacing" textLength="182" x="437.5" y="934.623">└ P:updateLeftWingToclosed</text></g><g id="landing.LandingLeftWingOpened"><rect fill="#FFFFFF" height="50.2656" rx="12.5" ry="12.5" style="stroke:#708090;stroke-width:1.5;" width="202" x="432.5" y="1010.1875"/><line style="stroke:#708090;stroke-width:1.5;" x1="432.5" x2="634.5" y1="1036.4844" y2="1036.4844"/><text fill="#000000" font-family="monospace" font-size="14" lengthAdjust="spacing" textLength="48" x="509.5" y="1028.1826">opened</text><text fill="#000000" font-family="monospace" font-size="12" lengthAdjust="spacing" textLength="182" x="437.5" y="1052.623">└ P:updateLeftWingToopened</text></g><ellipse cx="533.5" cy="842.6875" fill="#000000" rx="10" ry="10" style="stroke:none;stroke-width:1.0;"/><!--MD5=[9ca773827d4b637d1655295cc193c042]
link *start*landing to LandingLeftWingClosed--><path d="M533.5,852.8675 C533.5,861.4675 533.5,874.7975 533.5,887.0075 " fill="none" id="*start*landing-to-LandingLeftWingClosed" style="stroke:#708090;stroke-width:2.0;"/><polygon fill="#708090" points="533.5,892.1575,537.5,883.1575,533.5,887.1575,529.5,883.1575,533.5,892.1575" style="stroke:#708090;stroke-width:2.0;"/><!--MD5=[bee8c9f1aa3d6f1bdf48fd01b930c81c]
link LandingLeftWingClosed to LandingLeftWingOpened--><path d="M459.81,942.3775 C453.01,947.2775 447,953.1475 442.5,960.1875 C434.83,972.1675 434.83,980.2075 442.5,992.1875 C446.09,997.7975 450.63,1002.6575 455.77,1006.8875 " fill="none" id="LandingLeftWingClosed-to-LandingLeftWingOpened" style="stroke:#708090;stroke-width:2.0;"/><polygon fill="#708090" points="459.81,1009.9975,455.1182,1001.338,455.8479,1006.9476,450.2383,1007.6773,459.81,1009.9975" style="stroke:#708090;stroke-width:2.0;"/><text fill="#000000" font-family="monospace" font-size="13" lengthAdjust="spacing" textLength="32" x="443.5" y="973.2544">open</text><text fill="#000000" font-family="monospace" font-size="13" lengthAdjust="spacing" textLength="160" x="443.5" y="988.3872">└ G:isLeftWingClosed</text><!--MD5=[43a6dbb72e08a1f109f99a9f80b65f4b]
link LandingLeftWingOpened to LandingLeftWingClosed--><path d="M588.52,1010.0975 C594.89,1005.0875 600.53,999.1575 604.5,992.1875 C611.55,979.8375 611.55,972.5375 604.5,960.1875 C601.4,954.7475 597.28,949.9375 592.59,945.7075 " fill="none" id="LandingLeftWingOpened-to-LandingLeftWingClosed" style="stroke:#708090;stroke-width:2.0;"/><polygon fill="#708090" points="588.52,942.2775,592.8409,951.1279,592.3494,945.4925,597.9848,945.0009,588.52,942.2775" style="stroke:#708090;stroke-width:2.0;"/><text fill="#000000" font-family="monospace" font-size="13" lengthAdjust="spacing" textLength="40" x="610.5" y="973.2544">close</text><text fill="#000000" font-family="monospace" font-size="13" lengthAdjust="spacing" textLength="160" x="610.5" y="988.3872">└ G:isLeftWingOpened</text><line style="stroke:#708090;stroke-width:1.5;stroke-dasharray:8.0,10.0;" x1="765.5" x2="765.5" y1="824.1875" y2="1073.4531"/><path d="M771.5,830.1875 L771.5,855.3203 L872.5,855.3203 L872.5,840.1875 L862.5,830.1875 L771.5,830.1875 " fill="#FFFFFF" style="stroke:#708090;stroke-width:1.0;"/><path d="M862.5,830.1875 L862.5,840.1875 L872.5,840.1875 L862.5,830.1875 " fill="#FFFFFF" style="stroke:#708090;stroke-width:1.0;"/><text fill="#000000" font-family="monospace" font-size="13" lengthAdjust="spacing" textLength="80" x="777.5" y="847.2544">Right wing</text><g id="landing.CONC33.LandingRightWingClosed"><rect fill="#FFFFFF" height="50.2656" rx="12.5" ry="12.5" style="stroke:#708090;stroke-width:1.5;" width="209" x="796.5" y="892.1875"/><line style="stroke:#708090;stroke-width:1.5;" x1="796.5" x2="1005.5" y1="918.4844" y2="918.4844"/><text fill="#000000" font-family="monospace" font-size="14" lengthAdjust="spacing" textLength="48" x="877" y="910.1826">closed</text><text fill="#000000" font-family="monospace" font-size="12" lengthAdjust="spacing" textLength="189" x="801.5" y="934.623">└ P:updateRightWingToclosed</text></g><g id="landing.CONC33.LandingRightWingOpened"><rect fill="#FFFFFF" height="50.2656" rx="12.5" ry="12.5" style="stroke:#708090;stroke-width:1.5;" width="209" x="796.5" y="1010.1875"/><line style="stroke:#708090;stroke-width:1.5;" x1="796.5" x2="1005.5" y1="1036.4844" y2="1036.4844"/><text fill="#000000" font-family="monospace" font-size="14" lengthAdjust="spacing" textLength="48" x="877" y="1028.1826">opened</text><text fill="#000000" font-family="monospace" font-size="12" lengthAdjust="spacing" textLength="189" x="801.5" y="1052.623">└ P:updateRightWingToopened</text></g><ellipse cx="901" cy="842.6875" fill="#000000" rx="10" ry="10" style="stroke:none;stroke-width:1.0;"/><!--MD5=[1f225dcc2cd486458da49c39a27312a5]
link *start*CONC33 to LandingRightWingClosed--><path d="M901,852.8675 C901,861.4675 901,874.7975 901,887.0075 " fill="none" id="*start*CONC33-to-LandingRightWingClosed" style="stroke:#708090;stroke-width:2.0;"/><polygon fill="#708090" points="901,892.1575,905,883.1575,901,887.1575,897,883.1575,901,892.1575" style="stroke:#708090;stroke-width:2.0;"/><!--MD5=[2e4cee8d5498b2ac0fc8d994b8b01ccb]
link LandingRightWingClosed to LandingRightWingOpened--><path d="M823.68,942.2575 C816.75,947.1775 810.63,953.0875 806,960.1875 C798.24,972.1075 798.24,980.2675 806,992.1875 C809.69,997.8475 814.33,1002.7475 819.56,1006.9975 " fill="none" id="LandingRightWingClosed-to-LandingRightWingOpened" style="stroke:#708090;stroke-width:2.0;"/><polygon fill="#708090" points="823.68,1010.1175,818.9145,1001.4984,819.692,1007.1015,814.0889,1007.8791,823.68,1010.1175" style="stroke:#708090;stroke-width:2.0;"/><text fill="#000000" font-family="monospace" font-size="13" lengthAdjust="spacing" textLength="32" x="807" y="973.2544">open</text><text fill="#000000" font-family="monospace" font-size="13" lengthAdjust="spacing" textLength="168" x="807" y="988.3872">└ G:isRightWingClosed</text><!--MD5=[e66f0a9d610945f9460a258eb895fb9a]
link LandingRightWingOpened to LandingRightWingClosed--><path d="M959.79,1009.9875 C966.23,1005.0275 971.92,999.1375 976,992.1875 C983.19,979.9175 983.19,972.4575 976,960.1875 C972.82,954.7575 968.65,949.9775 963.9,945.7775 " fill="none" id="LandingRightWingOpened-to-LandingRightWingClosed" style="stroke:#708090;stroke-width:2.0;"/><polygon fill="#708090" points="959.79,942.3875,964.182,951.2029,963.6451,945.5715,969.2764,945.0347,959.79,942.3875" style="stroke:#708090;stroke-width:2.0;"/><text fill="#000000" font-family="monospace" font-size="13" lengthAdjust="spacing" textLength="40" x="982" y="973.2544">close</text><text fill="#000000" font-family="monospace" font-size="13" lengthAdjust="spacing" textLength="168" x="982" y="988.3872">└ G:isRightWingOpened</text><!--MD5=[d417c346985782f2df6f195a1df6341d]
link *start to land--><path d="M606,47.1431 C606,60.1331 606,84.3331 606,102.6831 " fill="none" id="*start-to-land" style="stroke:#708090;stroke-width:2.0;"/><polygon fill="#708090" points="606,107.6931,610,98.6931,606,102.6931,602,98.6931,606,107.6931" style="stroke:#708090;stroke-width:2.0;"/><!--MD5=[e7dc098129bbb7606b30358104a03b4f]
link land to takingoff--><path d="M589.33,148.1931 C574.61,165.1931 551.6,191.7431 526.35,220.9031 " fill="none" id="land-to-takingoff" style="stroke:#708090;stroke-width:2.0;"/><polygon fill="#708090" points="522.93,224.8431,531.8411,220.6488,526.1992,221.06,525.7881,215.4181,522.93,224.8431" style="stroke:#708090;stroke-width:2.0;"/><text fill="#000000" font-family="monospace" font-size="13" lengthAdjust="spacing" textLength="56" x="561" y="191.02">takeoff</text><!--MD5=[5b2d1cfe2a62633fdd2cbb7104273f8c]
link takingoff to flying--><path d="M530.15,536.2631 C556.26,562.6631 583.87,589.2131 611,612.9531 C621.72,622.3331 634.15,631.7831 645.38,639.8331 " fill="none" id="takingoff-to-flying" style="stroke:#708090;stroke-width:2.0;stroke-dasharray:7.0,7.0;"/><polygon fill="#708090" points="649.45,642.7431,644.4401,634.2637,645.3775,639.8423,639.7988,640.7797,649.45,642.7431" style="stroke:#708090;stroke-width:2.0;"/><text fill="#000000" font-family="monospace" font-size="13" lengthAdjust="spacing" textLength="48" x="612" y="579.02">flying</text><text fill="#000000" font-family="monospace" font-size="13" lengthAdjust="spacing" textLength="160" x="612" y="594.1528">├ G:isLeftWingOpened</text><text fill="#000000" font-family="monospace" font-size="13" lengthAdjust="spacing" textLength="168" x="612" y="609.2856">└ G:isRightWingOpened</text><!--MD5=[5d2e5be93fedc5e28c10935d64d39cf3]
link flying to landing--><path d="M686.06,683.1931 C693.13,700.0531 704.14,726.3131 716.24,755.1931 " fill="none" id="flying-to-landing" style="stroke:#708090;stroke-width:2.0;"/><polygon fill="#708090" points="718.19,759.8431,718.384,749.9962,716.2497,755.2349,711.0109,753.1006,718.19,759.8431" style="stroke:#708090;stroke-width:2.0;"/><text fill="#000000" font-family="monospace" font-size="13" lengthAdjust="spacing" textLength="32" x="704" y="726.02">land</text><!--MD5=[eadc66f1bb1e5462b62c322d75d1a534]
link landing to land--><path d="M827.99,759.8431 C861.64,611.5131 886.87,386.8031 789,224.9531 C755.64,169.7831 678.95,144.7631 636.19,134.7531 " fill="none" id="landing-to-land" style="stroke:#708090;stroke-width:2.0;stroke-dasharray:7.0,7.0;"/><polygon fill="#708090" points="631.15,133.6031,639.0516,139.4823,636.0279,134.7014,640.8088,131.6776,631.15,133.6031" style="stroke:#708090;stroke-width:2.0;"/><text fill="#000000" font-family="monospace" font-size="13" lengthAdjust="spacing" textLength="32" x="857" y="579.02">land</text><text fill="#000000" font-family="monospace" font-size="13" lengthAdjust="spacing" textLength="160" x="857" y="594.1528">├ G:isLeftWingClosed</text><text fill="#000000" font-family="monospace" font-size="13" lengthAdjust="spacing" textLength="168" x="857" y="609.2856">└ G:isRightWingClosed</text><!--MD5=[e443ce9e779d8e4f70e1377c19342ffa]
@startuml

title Bird

state land<<default>>
state takingoff<<default>>
state flying<<default>>
state landing<<default>>

state takingoff {
  note "Left wing" as NTakingoffLeftWing

  state "closed" as TakingoffLeftWingClosed<<default>>
  state "opened" as TakingoffLeftWingOpened<<default>>

  TakingoffLeftWingClosed: └ P:updateLeftWingToclosed
  TakingoffLeftWingOpened: └ P:updateLeftWingToopened

  [*] - -> TakingoffLeftWingClosed
  TakingoffLeftWingClosed -[#slategray]-> TakingoffLeftWingOpened: open\n└ G:isLeftWingClosed
  TakingoffLeftWingOpened -[#slategray]-> TakingoffLeftWingClosed: close\n└ G:isLeftWingOpened

  ||

  note "Right wing" as NTakingoffRightWing

  state "closed" as TakingoffRightWingClosed<<default>>
  state "opened" as TakingoffRightWingOpened<<default>>

  TakingoffRightWingClosed: └ P:updateRightWingToclosed
  TakingoffRightWingOpened: └ P:updateRightWingToopened

  [*] - -> TakingoffRightWingClosed
  TakingoffRightWingClosed -[#slategray]-> TakingoffRightWingOpened: open\n└ G:isRightWingClosed
  TakingoffRightWingOpened -[#slategray]-> TakingoffRightWingClosed: close\n└ G:isRightWingOpened
}

state landing {
  note "Left wing" as NLandingLeftWing

  state "closed" as LandingLeftWingClosed<<default>>
  state "opened" as LandingLeftWingOpened<<default>>

  LandingLeftWingClosed: └ P:updateLeftWingToclosed
  LandingLeftWingOpened: └ P:updateLeftWingToopened

  [*] - -> LandingLeftWingClosed
  LandingLeftWingClosed -[#slategray]-> LandingLeftWingOpened: open\n└ G:isLeftWingClosed
  LandingLeftWingOpened -[#slategray]-> LandingLeftWingClosed: close\n└ G:isLeftWingOpened

  ||

  note "Right wing" as NLandingRightWing

  state "closed" as LandingRightWingClosed<<default>>
  state "opened" as LandingRightWingOpened<<default>>

  LandingRightWingClosed: └ P:updateRightWingToclosed
  LandingRightWingOpened: └ P:updateRightWingToopened

  [*] - -> LandingRightWingClosed
  LandingRightWingClosed -[#slategray]-> LandingRightWingOpened: open\n└ G:isRightWingClosed
  LandingRightWingOpened -[#slategray]-> LandingRightWingClosed: close\n└ G:isRightWingOpened
}

takingoff: ├ T:LeftWing.open\n└ T:RightWing.open
landing: ├ T:LeftWing.close\n└ T:RightWing.close

[*] - -> land
land -[#slategray]-> takingoff: takeoff
takingoff -[#slategray,dashed]-> flying: flying\n├ G:isLeftWingOpened\n└ G:isRightWingOpened
flying -[#slategray]-> landing: land
landing -[#slategray,dashed]-> land: land\n├ G:isLeftWingClosed\n└ G:isRightWingClosed

hide empty description
skinparam backgroundColor white
skinparam shadowing false
skinparam note {
  BackgroundColor white
  BorderColor slategray
  FontName monospaced
}
skinparam ArrowFontName monospaced
skinparam state {
  FontName monospaced
  AttributeFontName monospaced
  BackgroundColor white
  BorderColor slategray
  ArrowColor slategray
  ArrowThickness 2
  MessageAlignment left
  BackgroundColor<<danger>> Implementation
  BorderColor<<danger>> indianred
  BackgroundColor<<info>> Application
  BorderColor<<info>> skyblue
  BackgroundColor<<warning>> Strategy
  BorderColor<<warning>> tan
  BackgroundColor<<success>> Technology
  BorderColor<<success>> mediumseagreen
  BackgroundColor<<primary>> Motivation
  BorderColor<<primary>> lightsteelblue
}
@enduml

PlantUML version 1.2021.12(Tue Oct 05 11:01:58 CDT 2021)
(GPL source distribution)
Java Runtime: OpenJDK Runtime Environment
JVM: OpenJDK 64-Bit Server VM
Default Encoding: UTF-8
Language: es
Country: MX
--></g></svg>